<?xml version="1.0" encoding="utf-8"?>
<!-- Generator: Adobe Illustrator 27.1.1, SVG Export Plug-In . SVG Version: 6.00 Build 0)  -->
<svg version="1.1" id="Layer_1" xmlns="http://www.w3.org/2000/svg" xmlns:xlink="http://www.w3.org/1999/xlink" viewBox="100 75 775 550" width="1000" xml:space="preserve">
<style type="text/css">
	.st0{fill:#FFFFFF;}
</style>
<path class="st0" d="M396,605.5c-17.3,0-35.8-11.1-42.9-25.7c-1-2-1.7-4.2-2.3-6.5c-1.3-5.1,0.6-8.9,5-10.5c1.1-0.4,2.2-0.6,3.3-0.6
	c3.4,0,6.1,2.1,7.7,5.9c5.7,13.6,16.3,21,30,21c5.9,0,12.1-1.5,17.9-4.2c15.6-7.4,29.7-18.4,44.4-34.6c5.3-5.9,10.4-12.2,15.4-18.3
	c2-2.5,4-4.9,6-7.4c0.4-0.4,0.7-0.9,1.1-1.5c-0.4,0-0.7,0.1-1.1,0.1c-4.2,0.5-8.3,1-12.5,1.5c-10,1.3-20.4,2.6-30.7,3.6
	c-0.7,0.1-1.4,0.1-2.1,0.1c-3.6,0-7.2-0.9-10-1.6c-5-1.4-8.8-4.1-10.8-8c-2-3.9-2.1-8.6-0.2-13.6c2.9-7.8,8.8-14.2,17.5-19.1
	c11-6.2,22.5-9.3,34.1-9.3c11.7,0,23.9,3.2,36,9.5c1.3,0.7,2.3,1,2.9,1c0.5,0,1.1-0.2,2.5-2.5c19.4-32.2,37.3-68.6,55-111.2
	c0.7-1.6,1.4-3.2,2.1-4.8c1.9-4.4,3.9-9,5.2-13.5c2-6.8,3.6-13.8,5.2-20.6c0.8-3.3,1.5-6.5,2.3-9.8c0.3-1.1,0.5-2.2,0.8-3.3
	c0.7-3.3,1.5-6.8,2.9-10c1.1-2.6,4.8-5,7.5-5c0.1,0,0.2,0,0.3,0c1.8,0.1,3.3,0.9,4.3,2.2c1.2,1.7,1.6,4.1,1,6.8
	c-1.1,4.5-2.2,9.1-3.3,13.5c-0.8,3.1-1.6,6.2-2.3,9.3c-0.2,0.9-0.4,1.9-0.5,3.1c-0.1,0.5-0.1,1-0.2,1.6
	c-7.8,50.5-11.3,101.4-13.7,144.8c0.1,0,0.2,0,0.2-0.1c1.6-0.4,2.9-0.6,4.1-1c8-2.6,16-5.3,24-8c7.5-2.5,15-5,22.5-7.4
	c3.6-1.2,6.3-1.8,8.4-1.8c5,0,5.8,3.4,5.9,4.9c0.4,6.8-5,7.9-8.3,8.5c-0.8,0.2-1.7,0.3-2.3,0.5c-11.7,3.6-23.7,7.1-35.3,10.5
	c-4.5,1.3-9,2.6-13.6,4c-3.2,0.9-5.2,1.5-5.9,2.3c-0.6,0.7-0.7,2.7-0.8,5.8l0,0.5c-1.4,33.5-2.6,59.1-3.8,82.8c0,0.4,0,0.8,0,1.2
	c-0.1,3.5-0.3,9.4-6.4,10.1c-0.4,0-0.7,0.1-1,0.1c-5.5,0-6.6-5-7.3-8.3c-0.1-0.6-0.3-1.1-0.4-1.7c-7.5-27.7-17.8-50.5-31.3-69.6
	c-3.3-4.7-3.8-5.1-5.5-5.1c-0.9,0-2.1,0.2-3.8,0.4c-0.6,0.1-1.2,0.2-1.9,0.2c-8,1-13.5,4.7-19,12.8c-17.1,25.2-33.5,43.4-51.7,57.4
	c-9.9,7.6-23.4,16.4-40.6,18.2C398.7,605.4,397.4,605.5,396,605.5z M530.8,512.3c13.1,18,22.9,38,29.8,60.9l2.8-70.1L530.8,512.3z
	 M448.7,492.3c-10.5,3.7-16.9,8.4-20.9,15.3c-1.7,2.9-1.7,4.2-1.5,4.8c0.3,0.6,1.3,1.4,4.5,2.1c1.4,0.3,3.2,0.6,5,0.6
	c0.5,0,0.9,0,1.3-0.1c5.6-0.6,11.2-1.2,16.7-1.8c9.7-1.1,19.7-2.2,29.5-3c6.8-0.5,11.1-3.3,14.4-9.5c1.2-2.3,1-2.4-1-3.5
	c-9.4-5.1-18.9-7.6-29.2-7.6C461.6,489.7,455.2,490.6,448.7,492.3z M508.5,505.7c0-0.1,0-0.1,0-0.2c-0.1,0-0.2-0.1-0.2-0.1
	c0,0.1-0.1,0.2-0.1,0.3C508.2,505.7,508.4,505.7,508.5,505.7z M570.3,381.5c-2.1,4.7-4.1,9.4-6.1,14c-5.6,13.1-11.5,26.6-17.8,39.6
	c-6.2,12.8-13,25.5-19.6,37.8c-3.3,6.2-6.7,12.6-10,18.9c-0.5,1-1.7,3.2-1.5,3.9c0.8,2.8,6.5,6.1,10.5,6.1c0.5,0,0.9,0,1.2-0.1
	c4.5-1.2,9.1-2.4,13.5-3.6c6.3-1.7,12.8-3.5,19.3-5.1c3.1-0.8,4-2,4.1-5.4c0.3-9.7,0.8-19.4,1.3-29.6c0.2-3.5,0.4-7.1,0.5-10.8
	L570.3,381.5z M614.6,297.2c-6.1,0-10.3-4-11.7-11c-0.8-3.9-1-7.8-1.3-11.7c-0.1-1.9-0.3-3.9-0.5-5.9c-0.2-1.5-0.4-3.1-0.7-5
	c0-0.1,0-0.1,0-0.2c-0.1,0.1-0.2,0.1-0.2,0.2c-1.6,1.3-2.9,2.4-3.9,3.5c-3.3,3.8-6.5,7.8-9.6,11.6c-1.3,1.7-2.7,3.3-4,5
	c-0.2,0.3-0.5,0.6-0.7,1c-0.7,1-1.5,2.1-2.7,2.8c-1.2,0.8-2.6,1.2-3.8,1.5c-0.5,0.1-0.9,0.3-1.4,0.4c-0.2,0.1-0.4,0.1-0.6,0.1
	c-0.3,0-0.6-0.1-0.9-0.2c-0.5-0.2-0.8-0.7-1-1.2c-0.1-0.4-0.4-0.9-0.6-1.5c-0.7-1.5-1.4-3.1-1-4.8c2-8.3,4.2-16.3,6.6-23.7
	c2.4-7.6,4.9-14.9,7.6-22.7c1.1-3.3,2.3-6.6,3.4-10c4.9-13.7,9.7-27.4,14.6-41.1c-1.6-0.1-3.2-0.2-4.7-0.2c-3-0.2-5.9-0.3-8.7-0.3
	c-1.9,0-3.7,0.1-5.3,0.2c-14,1.4-29.2,3.3-47.9,6.1c-0.8,0.1-2.6,2.1-3.3,3.9c-4.1,12.4-9.5,28.6-14.3,45.2
	c-3,10.1-5.8,20.5-8.4,30.6c-1.4,5.2-2.8,10.5-4.2,15.7c-0.3,1.3-1.5,2-3.4,2.2c-0.1,0-0.1,0-0.2,0c-0.5,0-1.1-0.2-1.4-0.6
	c-0.4-0.5-0.6-1.1-0.5-1.7c3.9-24.1,10.4-47,17.3-71.2c2-7.2,4.2-14.6,6.2-22.1c-0.8,0.1-1.6,0.2-2.4,0.3c-3.4,0.5-6.7,0.9-9.8,1.6
	c-7.2,1.5-14.4,3-21.7,4.5c-23.5,4.8-47.8,9.9-71.6,15.3c-9.7,2.2-19.5,5.4-28.9,8.4c-4.3,1.4-8.7,2.8-13.1,4.1
	c-0.3,0.1-0.6,0.2-0.9,0.4c-0.8,0.3-1.7,0.7-2.7,0.7c-0.2,0-0.4,0-0.7-0.1c-1.7-0.3-3.3-0.9-4.8-1.4c-0.6-0.2-1.2-0.4-1.8-0.6
	c-0.6-0.2-1.1-0.7-1.3-1.4s0-1.4,0.5-1.9c0.4-0.4,0.7-0.9,1.1-1.5c1-1.4,2.2-3,4-3.6c3-1,6.1-1.9,9.1-2.9
	c10.2-3.3,20.7-6.7,31.3-8.8c26.7-5.4,53.8-10.4,80.1-15.2c10.9-2,21.8-4,32.7-6.1c4-0.7,9.8-9.3,9.1-13.4c-0.2-1.4-0.4-3,0.2-4.5
	c5.2-12.5,10.5-25.1,15.5-36.8c0.4-0.9,0.9-1.6,1.4-2.3c0.1-0.2,0.3-0.4,0.4-0.6c1.7-2.3,3.8-3.6,5.9-3.6c1.4,0,2.7,0.6,3.8,1.7
	c2,1.9,1.9,6.8,0.5,9c-9.2,13.3-15,28.2-20.1,42.3c-0.5,1.4-1.1,2.8-1.6,4.2c-0.2,0.6-0.5,1.2-0.7,1.8c1.9-0.3,3.7-0.5,5.6-0.8
	c5.8-0.8,11.7-1.7,17.7-2.3l1.3-0.1c12.6-1.4,25.6-2.9,38.5-3.8c0.3,0,0.7,0,1,0c3.1,0,6.6,0.9,10.9,2.8c2.4,1.1,3.8,5.6,3,8
	c-0.9,2.9-2.2,5.6-3.5,8.3c-0.9,1.9-1.8,3.9-2.6,5.8c-8.8,22.8-17.3,45.1-24.4,63.9c-0.4,1.2-0.8,2.4-1.2,3.6c0.8-1,1.7-1.9,2.5-2.9
	c2.3-2.7,4.6-5.5,7.2-7.9c2.8-2.6,5.7-4,8.5-4c4.6,0,7.9,3.6,8.9,9.6c0.6,3.8,0.8,7.6,1,11.3c0.1,2.7,0.3,5.5,0.6,8.2
	c0.7,6,2.5,6,3.4,6c1.2,0,2.8-0.5,4.9-1.6c15.9-7.9,28.4-20.1,38.4-31.1c2.9-3.1,5.6-6.6,8.2-9.9c1.9-2.5,3.9-5,5.9-7.4
	c1-1.2,2.5-1.7,3.8-2.2c0.5-0.2,0.9-0.3,1.3-0.5c0.3-0.1,0.6-0.2,0.9-0.2c0.3,0,0.7,0.1,1,0.3c0.6,0.3,0.9,0.9,1,1.6
	c0,0.5,0.1,1,0.2,1.5c0.3,1.4,0.6,3,0.1,4.5c-1.7,5.7-3.5,11.4-5.3,17c-1,3-1.9,6.1-2.9,9.1c-0.2,0.5-0.2,1.2-0.2,1.9l0,0.6
	c-0.1,4,0.6,6.9,2,8.4c0.8,0.8,1.9,1.2,3.3,1.2c1.7,0,3.8-0.6,6.3-1.7c11.6-5.3,20.5-13.7,30-22.6c1.2-1.1,2.5-2.3,3.7-3.4
	c12.6-11.7,19.3-26.5,26.4-42.2l1.2-2.7c7-15.4,14.6-30.8,22.1-45.6c2.5-5,5-10,7.5-15.1c1.4-2.8,3.1-6,5.5-8.4
	c1.3-1.4,3.2-2.1,4.9-2.7c0.7-0.2,1.3-0.5,1.9-0.7c0.3-0.1,0.5-0.2,0.8-0.2c0.3,0,0.6,0.1,0.9,0.2c0.5,0.3,0.9,0.8,1,1.4
	c0.1,0.6,0.3,1.2,0.5,1.9c0.5,1.7,1.1,3.7,0.4,5.5l-1.2,3.1c-3.7,9.9-7.6,20.1-12.2,29.8c-8.8,18.4-20.1,37.2-34.7,57.5
	c-2.3,3.2-4,6.9-5.8,10.8c0,0.1,0,0.1-0.1,0.2c1.2-1.1,2.5-2.3,3.7-3.4c7.3-6.6,14.8-13.5,22.8-19.6c4.1-3.2,9.6-4.8,14.4-6.3
	l0.3-0.1c1.2-0.4,2.5-0.6,3.7-0.6c3.9,0,7.2,2,9.1,5.4c2.2,4.1,1.3,8.4-2.8,12.7c-5.2,5.6-12.2,8.8-21.2,9.7l-1.1,0.1
	c6.2,11.9,17.7,18.9,31.1,18.9c7.3,0,14.7-2.2,21.5-6.3c3.4-2.1,6.7-4.5,9.8-6.8c2.6-1.9,5.3-3.9,8.1-5.7c1.5-1,3.3-1.1,5-1.3
	c0.6-0.1,1.3-0.1,1.8-0.2c0.1,0,0.2,0,0.4,0c0.6,0,1.2,0.3,1.6,0.8c0.5,0.6,0.5,1.4,0.2,2.1c-0.2,0.5-0.4,1.1-0.7,1.7
	c-0.6,1.6-1.2,3.5-2.7,4.5c-11.6,8.2-24.4,16.1-39.8,18.6c-2.3,0.4-4.5,0.5-6.7,0.5c-9.7,0-18.6-3.5-27.3-10.6
	c-4.1-3.4-8.2-6.7-12.6-10.3l-5.3-4.4c-0.9,1-1.8,2-2.8,3.1c-4.2,4.7-9,10-13.8,15.5c-0.9,1-1.7,2.1-2.6,3.3c-1,1.4-2.1,2.9-3.4,4.2
	c-1,1.1-2.4,1.5-3.6,1.9c-0.4,0.1-0.9,0.3-1.2,0.4c-0.2,0.1-0.5,0.1-0.8,0.1c-0.4,0-0.7-0.1-1-0.3c-0.5-0.3-0.9-0.9-0.9-1.5
	c0-0.4-0.1-0.8-0.2-1.3c-0.2-1.3-0.5-2.7,0-4.1c1.1-3,2.4-6,3.7-8.9c-0.1,0-0.1,0.1-0.2,0.1c-2.6,2.3-5.1,4.6-7.6,6.9
	c-6.1,5.5-12.5,11.3-19,16.5c-3.6,2.9-8.4,5.3-14.4,7.1c-2,0.6-3.8,0.9-5.6,0.9c-6.8,0-11.4-4.4-12.7-12.2c-0.6-3.5-0.3-7.2,0-10.7
	c0.1-1.3,0.2-2.7,0.3-4.1c-0.2,0.3-0.5,0.6-0.7,0.8l-0.8,0.8c-9.6,8.6-19.5,17.5-29.7,25.8c-3.7,3-8.5,4.9-12.6,6.3
	C618.4,296.8,616.4,297.2,614.6,297.2z M779.7,225.6c-6.3,0.9-11.5,4.3-16.3,8c2.1,0,4.2-0.1,6.7-0.2c1-0.5,1.9-1,2.9-1.5
	c2.7-1.4,5.6-2.8,8.1-4.4c0.1-0.3,0.3-0.9,0.4-1.4c-0.7-0.3-1.3-0.5-1.7-0.5C779.7,225.6,779.7,225.6,779.7,225.6z M772.1,171.8
	c-4.2,8-8.4,16.1-12.6,24.1C764.4,187.7,768.5,179.7,772.1,171.8z"/>
<path class="st0" d="M585.7,342.9c-7.6,49-11.2,97.8-13.9,147.6c3-0.7,5.1-1.1,7.1-1.7c15.5-5.1,31-10.3,46.5-15.4
	c7.8-2.6,11.4-2.2,11.7,1.4c0.4,6.4-5.5,5.8-9.2,7c-16.2,5-32.6,9.7-48.9,14.5c-8,2.3-7.8,2.4-8.1,10.5c-1.2,27.6-2.4,55.2-3.8,82.8
	c-0.2,3.6,0.2,8.8-4.7,9.4c-5.4,0.6-5.6-4.9-6.6-8.5c-6.8-25.1-16.5-48.9-31.6-70.3c-4.9-7-4.8-6.3-13-5.3
	c-9.4,1.2-15.2,6-20.4,13.7c-14.4,21.3-30.7,41.1-51.3,56.9c-11.7,9-24.3,16.2-39.6,17.8c-17.2,1.8-37.3-8.9-44.8-24.4
	c-0.9-1.9-1.7-4-2.2-6.1c-0.9-3.7,0-6.8,3.8-8.2c4.1-1.5,6.9,0.5,8.4,4.1c9.9,23.6,32.7,26.4,50.7,17.9c17.7-8.4,32.1-20.8,45.1-35
	c7.5-8.2,14.3-17.1,21.4-25.7c1-1.2,1.8-2.6,3.4-5c-2.5,0.2-3.8,0.2-5.2,0.4c-14.4,1.7-28.7,3.7-43.1,5.1c-3.7,0.4-7.7-0.5-11.3-1.4
	c-9.2-2.5-13-10-9.6-19c3.1-8.2,9.3-13.9,16.6-18c22.7-12.7,45.7-11.5,68.3,0.2c4.2,2.2,5.8,1.5,8.1-2.2
	c21.4-35.6,39.2-73.1,55.1-111.4c2.5-6.2,5.5-12.2,7.3-18.6c2.9-10,5.1-20.3,7.6-30.4c1.1-4.4,1.8-8.9,3.6-12.9
	c0.8-1.9,3.9-4,5.8-3.8c3.4,0.2,4.2,3.4,3.4,6.5c-1.8,7.6-3.8,15.2-5.6,22.8C586.1,339.5,585.9,341,585.7,342.9 M567.9,447.2l5-74.7
	c-1.4,1.5-2.2,3.1-2.9,4.7c-8.4,19-16.3,38.3-25.4,57c-9.3,19.2-19.7,37.7-29.6,56.6c-0.9,1.7-2,3.9-1.6,5.4
	c1.3,4.4,9.7,8.5,14.2,7.4c10.9-2.9,21.8-6,32.8-8.7c4.1-1,5.5-3.1,5.6-7.3C566.4,474.4,567.2,461.3,567.9,447.2 M448.1,490.4
	c-9,3.2-17.1,7.7-22.1,16.2c-3.4,5.9-2.2,8.5,4.4,9.8c2.3,0.4,4.7,0.8,6.9,0.6c15.4-1.6,30.7-3.6,46.1-4.8c7.7-0.6,12.5-3.9,16-10.5
	c1.7-3.2,1.2-4.5-1.8-6.2C482.2,487,465.9,485.6,448.1,490.4 M560.1,578.8l1.1,1.9l1.1-0.2l3.2-80.1c-13.3,3.7-25.3,7.1-38.1,10.7
	C543,531.9,553.3,554.2,560.1,578.8 M510.2,504.2c-3.9-2.4-3.8,0.9-4.9,3.1C510.6,508.2,511,508,510.2,504.2 M589.3,226.2
	c5.2-14.5,10.3-29.1,15.5-43.6c-8-0.2-14.9-1.1-21.7-0.4c-16.1,1.6-32.1,3.8-48,6.1c-1.9,0.3-4.2,3.2-4.9,5.3
	c-5,15-9.9,30.1-14.3,45.3c-4.5,15.4-8.5,30.9-12.7,46.3c-0.1,0.4-0.7,0.6-1.7,0.8c5.2-32.3,15.4-63.4,24.2-96
	c-5.7,0.9-10.6,1.3-15.4,2.3c-31.1,6.5-62.3,12.7-93.3,19.8c-14.2,3.3-28.1,8.4-42.1,12.6c-1.1,0.3-2.3,1.2-3.3,1
	c-2.2-0.4-4.2-1.3-6.3-2c1.4-1.6,2.6-4,4.3-4.5c13.3-4.2,26.6-9,40.3-11.7c37.5-7.6,75.2-14.2,112.8-21.3c5.1-1,11.5-10.5,10.7-15.7
	c-0.2-1.1-0.3-2.4,0.1-3.4c5.1-12.3,10.3-24.5,15.5-36.8c0.4-0.9,1.1-1.7,1.7-2.5c1.8-2.5,4.4-3.9,6.7-1.7c1.1,1.1,1.2,4.9,0.2,6.4
	c-9.1,13.2-14.9,27.8-20.3,42.7c-0.9,2.5-2,4.9-2.9,7.4c-0.1,0.2,0.2,0.6,0.5,1.5c8.4-1.1,16.9-2.4,25.4-3.4
	c13.2-1.5,26.5-3,39.7-3.9c3.6-0.3,7.5,1.1,10.9,2.6c1.3,0.6,2.4,4,1.9,5.6c-1.5,4.8-4.1,9.3-6,14c-8.2,21.3-16.3,42.6-24.4,64
	c-1,2.7-1.7,5.6-2.5,8.4l1.1,0.7c0.9-0.7,1.8-1.4,2.6-2.2c3.6-4,6.8-8.3,10.7-11.9c6.3-6,12.6-4,14,4.5c1.1,6.4,0.8,12.9,1.6,19.4
	c0.9,7.9,4,9.6,11.2,6c15.3-7.6,27.6-19.1,39-31.5c5.1-5.5,9.3-11.7,14.2-17.4c1-1.2,2.9-1.5,4.4-2.2c0.2,1.8,0.9,3.7,0.4,5.3
	c-2.6,8.7-5.5,17.4-8.2,26c-0.3,0.9-0.2,2-0.3,3c-0.3,10.7,4.6,14.2,14.4,9.7c13.4-6.1,23.6-16.5,34.3-26.4
	c13.7-12.7,20.6-29.1,28.1-45.5c9.3-20.5,19.6-40.5,29.5-60.6c1.4-2.8,3-5.7,5.1-7.9c1.5-1.5,4.1-2,6.2-2.9c0.4,2.1,1.6,4.6,0.9,6.3
	c-4.2,11-8.3,22.2-13.3,32.8c-9.6,20.2-21.5,39.1-34.6,57.2c-3.6,5-5.7,11-8.5,16.5l2.9,2.3c0.7-1.5,0.9-3.5,2-4.5
	c8.9-8,17.7-16.2,27.1-23.5c3.9-3,9.2-4.6,14.1-6c4-1.2,8.2-0.2,10.5,3.8c2.1,3.9,0.3,7.4-2.5,10.4c-5.4,5.8-12.3,8.3-20,9.1
	c-1.3,0.1-2.5,0.3-3.9,0.4c9.7,22,35.1,29.2,56.7,16c6.2-3.8,11.9-8.6,18-12.6c1.6-1,4-0.8,6-1.2c-0.9,1.9-1.3,4.4-2.7,5.5
	c-11.9,8.4-24.2,15.9-39,18.2c-12.4,2-23-1.8-32.4-9.6c-6.2-5.1-12.4-10.1-19.4-15.8c-4.7,5.2-11.3,12.6-17.9,20
	c-2.1,2.4-3.7,5.2-5.9,7.5c-0.9,1-2.7,1.2-4.1,1.8c-0.1-1.5-0.8-3.2-0.3-4.5c1.7-4.6,3.8-9,5.7-13.5l-1.3-1
	c-1.3,1.2-2.7,2.3-4.1,3.5c-8.8,7.8-17.4,16-26.6,23.3c-3.9,3.1-8.9,5.3-13.8,6.8c-8.4,2.6-14.3-1.1-15.7-9.7
	c-0.7-4.6,0.1-9.5,0.3-14.3c0-1.3,0.4-2.5,0.6-3.8l-2.3-2c-0.8,1.7-1.1,3.8-2.4,5c-10,9-20,18-30.4,26.5c-3.4,2.8-7.8,4.5-12,5.9
	c-7.8,2.6-13.3-0.4-14.9-8.4c-1.1-5.7-1.2-11.6-1.8-17.4c-0.2-2.4-0.7-4.8-1.3-8.8c-3.1,2.7-5.4,4.2-7.1,6.2
	c-4.7,5.4-9.1,11.1-13.6,16.6c-0.9,1.2-1.7,2.6-2.9,3.4c-1.4,0.9-3.2,1.1-4.8,1.7c-0.6-1.7-1.9-3.7-1.6-5.2
	c1.9-7.9,4.1-15.8,6.6-23.6C581.8,248,585.5,237.3,589.3,226.2 M748.7,216.8c14.2-20.8,26.3-42.7,34-66.8c-1.4,1-2.5,2.3-3.2,3.7
	c-7.8,14.9-15.7,29.7-23.3,44.6c-3.1,6-5.4,12.4-8.5,18.9l-0.1,0.7C747.7,217.6,747.9,217.3,748.7,216.8 M770.6,235.4
	c3.9-2.1,8-3.9,11.7-6.3c1-0.7,1.1-2.8,1.6-4.3c-1.5-0.4-3.1-1.4-4.5-1.2c-7.8,1.1-13.9,5.6-19.8,10.5l0.2,1.5
	C763.2,235.6,766.5,235.6,770.6,235.4 M727.3,251.5l0.3,0.2C727.6,251.7,727.6,251.4,727.3,251.5 M783.5,147.6
	C783.5,147.6,783.5,147.5,783.5,147.6"/>
<path class="st0" d="M616.5,570.6c-0.2,0-0.4,0-0.6-0.1c-0.5-0.2-1-0.6-1.2-1.1c-0.1-0.4-0.4-0.7-0.6-1.2c-0.6-1.1-1.3-2.4-1.2-3.9
	c0.2-3.6,0.5-7.2,0.8-10.7c0.4-4.5,0.8-9.1,0.9-13.6c0.2-4.5,0.1-9.2,0.1-13.7c0-3.8-0.1-7.8,0-11.7c0-1.7,0.8-3.2,1.5-4.5
	c0.3-0.5,0.5-1,0.7-1.5c0.3-0.7,0.9-1.1,1.6-1.2c0.1,0,0.2,0,0.3,0c0.6,0,1.2,0.3,1.6,0.8c0.3,0.4,0.7,0.8,1.1,1.3
	c1.2,1.2,2.5,2.7,2.5,4.5c-0.2,11.1-0.6,22.3-1.1,33.2l-0.3,7.1c1.2-1.1,2.4-2.1,3.6-3.2c5.3-4.8,10.4-9.3,15.6-13.7
	c12.2-10.3,24.2-17,36.5-20.7c2.4-0.7,4.1-1,5.5-1c2.8,0,4.8,1.2,6.7,3.2c1.1-2.1,2.2-4.4,3.6-6.3c1-1.4,2.7-2.1,4.1-2.7
	c0.6-0.2,1.1-0.5,1.5-0.7c0.3-0.2,0.6-0.2,1-0.2c0.3,0,0.7,0.1,1,0.3c0.6,0.3,1,0.9,1,1.6c0,0.5,0.1,1.1,0.2,1.7
	c0.3,1.6,0.6,3.4-0.2,5c-3.3,6.4-6.8,12.7-10.2,18.9c-1.1,2.1-2.3,4.1-3.4,6.2c-0.1,0.2-0.3,0.4-0.4,0.7c0,0,0,0,0,0
	c0,2.8,0.1,5.6,0.2,8.4l0,0.5c0.3,0,0.7-0.1,1-0.1c2.2-0.3,4.2-0.5,5.7-1.4c14.7-8.9,28.3-21,41.5-36.8c0.1-0.1,0.2-0.2,0.2-0.4
	c0.3-0.5,0.8-1.3,1.7-1.7c1.2-0.6,2.3-1,3.5-1.4c0.4-0.2,0.9-0.3,1.3-0.5c0.2-0.1,0.5-0.1,0.7-0.1c0.4,0,0.9,0.1,1.2,0.4
	c0.5,0.4,0.8,1.1,0.8,1.8c0,0.5,0,0.9,0,1.4c0,1.2,0,2.6-0.6,4c-1.5,3.4-3,6.8-4.5,10.1c-2.3,5.1-4.7,10.4-6.8,15.7
	c-0.9,2.3-0.8,5.4-0.6,8.5c0.1,1.2,0.5,4.1,2.3,4.1c0.5,0,1.4-0.2,2.7-1c10.3-6.9,18.3-12.9,25.2-19c4.3-3.8,8.3-8.3,12.1-12.6
	c2.4-2.7,4.8-5.4,7.3-8c1.3-1.3,2.9-2.1,4.5-2.8c0.6-0.3,1.3-0.6,1.8-0.9c0.3-0.2,0.6-0.2,1-0.2c0.4,0,0.8,0.1,1.1,0.4
	c0.6,0.4,0.9,1.2,0.8,1.9c-0.1,0.6-0.2,1.3-0.3,1.9c-0.2,1.6-0.4,3.3-0.7,4.9c-0.1,0.6-0.3,1.1-0.6,1.6c5,0.9,7.9,4.3,8.7,10.3
	l0.1,1.1c0.5,3.7,1,7.5,1.7,11.1c1.3,6.4,4.6,7.1,7,7.1h0c1.2,0,2.6-0.2,4.1-0.7c9.5-2.9,16.7-8.9,24.4-15.3
	c1.1-0.9,2.1-1.8,3.2-2.6c1.1-0.9,2.2-1.8,3.2-2.8c1.7-1.5,3.4-3,5.3-4.4c1.2-0.9,2.7-0.9,4-0.9c0.5,0,0.9,0,1.2,0
	c0.1,0,0.2,0,0.2,0c0.6,0,1.2,0.3,1.5,0.7c0.4,0.5,0.6,1.2,0.4,1.9c-0.1,0.3-0.2,0.8-0.3,1.2c-0.2,1.4-0.5,3-1.8,4
	c-9.7,7-20,14.2-31.5,22c-1.7,1.2-3.7,1.8-5.6,2.4l-0.9,0.3c-2.9,1-5.5,1.4-7.9,1.4c-7.5,0-12.5-4.7-14.7-14.1
	c-0.5-2.2-0.9-4.5-1.3-6.7c-0.3-1.5-0.5-3.1-0.8-4.7c-0.1-0.5-0.5-2.3-1.5-2.3c-0.5,0-1.2,0.3-1.9,0.9c-3.5,2.6-6.6,5.4-9.3,8.4
	c-1.9,2.1-3.7,4.4-5.4,6.7c-1.6,2-3.2,4.1-4.9,6.1c-1.1,1.2-2.6,1.9-3.9,2.6c-0.5,0.3-1,0.5-1.5,0.8c-0.3,0.2-0.7,0.3-1,0.3
	c-0.2,0-0.4,0-0.6-0.1c-0.5-0.2-1-0.6-1.2-1.1l-1.4-3.4c-0.6,0.3-1.2,0.6-1.7,1c-1.4,0.9-2.9,1.9-4.3,2.9c-2.8,1.9-5.7,3.9-8.8,5.6
	c-3.1,1.6-5.9,2.4-8.3,2.4c-3.4,0-9.4-1.6-10.3-12.7c-0.2-2.5,0.1-5,0.5-7.5c0.1-0.9,0.3-1.9,0.4-2.8c0.1-0.8,0.2-1.5,0.3-2.4
	c-0.7,0.5-1.3,0.9-1.8,1.3c-2.6,2-5.2,4-7.8,6c-5.8,4.5-11.9,9.2-18.1,13.5c-3.6,2.5-6.8,3.7-9.7,3.7c-2.4,0-4.6-0.8-6.6-2.4
	c-5.8-4.5-5.2-11.3-4-16.7c0.4-2,1.1-4,1.7-5.9c0.5-1.6,1-3.1,1.4-4.7c0.6-2.6,1.1-5.3,1.6-7.9c0.1-0.7,0.3-1.4,0.4-2.1
	c-1,0.3-2.1,0.7-3.1,1c-3.1,1-6.1,1.9-8.8,3.2c-20,9.3-35.3,24.2-46.4,36.1c-0.5,0.6-1,1.2-1.6,1.9c-0.7,0.9-1.5,1.9-2.4,2.8
	c-0.9,0.9-2,1.4-2.9,1.9c-0.4,0.2-0.7,0.4-1.1,0.6C617.2,570.5,616.8,570.6,616.5,570.6z M193.3,452.9c-0.6,0-1.2-0.3-1.6-0.8
	c-0.3-0.3-0.6-0.7-1-1.1c-1.1-1.1-2.4-2.3-2.5-4c-1.6-19.8-3-39.9-4.2-59.7c-1-15.7-1.8-31.7-2.6-47.1l-0.1-1.7
	c-0.1-1.8,0-3.5,0.2-5.2c0.1-0.8,0.1-1.5,0.1-2.3c0-0.8,0.6-1.5,1.4-1.8c-0.3-0.1-0.5-0.3-0.7-0.4c-0.4-0.4-0.6-0.9-0.6-1.4V269
	c-1.2,0.3-2.3,0.5-3.4,0.8c-3.9,0.9-7.6,1.7-11.3,2.3c-2.1,0.3-4.2,0.5-6.3,0.5c-8.3,0-16.5-2.4-25.1-7.4
	c-10.8-6.3-17.1-20.8-14.3-33.2c1.8-8.3,7.9-13.7,15.4-13.7c3.2,0,6.4,0.9,9.6,2.8c8.2,4.8,15.9,10.7,23.3,16.4c2.6,2,5.3,4.1,8,6.1
	c1.6,1.2,2.9,2.5,4.5,4c0-1.1,0.1-2.1,0.1-3.2c0.2-5.2,0.4-10,1-14.9c3-22.7,6.5-49.4,10.5-75.7c2.3-14.9,5.1-30,7.9-44.5l1-5.2
	c0.8-4.3,2.1-8,3.9-11c1.3-2.2,4.7-4.7,7.3-4.7c0.4,0,0.7,0,1,0.1c2.5,0.7,4.9,3,7.2,6.6c0.7,1.2,0.2,2.6-0.4,3.6
	c-0.5,0.9-2.2,3.8-4.3,3.9c-2,0.1-2.5,0.8-3.1,3.6c-1,4.4-2,8.7-2.9,13.1c-2.7,11.8-5.5,24-7.6,36.1c-4.5,25.2-8.5,50.6-12.1,74.4
	c-0.9,6-1.1,12.3-1.4,18.3c-0.1,1.5-0.1,2.9-0.2,4.4c0,1,0.2,2.3,0.5,2.9c0.1,0,0.2,0,0.3,0c0.9,0,2.1-0.4,2.7-0.9
	c3-2.3,6-4.5,9-6.7c8.8-6.6,18-13.4,26.2-20.9c9-8.2,17.5-17.2,25.8-26c3.6-3.8,7.3-7.7,11.1-11.6l23.8-27
	c15.4-17.5,30.7-34.9,46.1-52.4c0.3-0.3,0.6-0.7,0.9-1.1c1.3-1.6,2.7-3.4,4.8-3.9c0.5-0.1,1.1-0.2,1.7-0.2c2.1,0,4.9,0.8,6.5,2.4
	c1.9,1.9,0.5,6.7-0.9,8.5c-1.6,2-3.5,3.6-5.3,5.2c-1.3,1.2-2.5,2.2-3.7,3.4c-9.1,9.5-18.2,19.1-27.1,28.5
	c-18.1,19-36.8,38.7-55.5,57.8c-16.3,16.7-32.6,32.7-52.2,45.5c-2.2,1.5-4.5,2.9-6.9,4.4c-0.5,0.3-1,0.6-1.5,1
	c0.8,0.8,1.6,1.7,2.3,2.5c2.8,3,5.4,5.9,8.2,8.7c2.5,2.5,4.9,5.1,7.3,7.6c10.7,11.3,21.9,22.9,35.2,31.6c9.5,6.2,19.2,9.4,28.9,9.4
	c7.5,0,15.3-1.9,23.1-5.6c3.8-1.8,7.7-3.7,11.6-5.6l3.9-1.9c-3.5-7.8-0.2-14.1,3.2-19.4c8.5-13.3,20.2-24.1,35.7-32.8
	c0.4-0.2,0.8-0.4,1.2-0.6l0.2-0.1c3.7-1.7,7-2.6,9.9-2.6c3.8,0,7,1.6,9,4.6c4,5.9,2,16.6-4.1,22c-3.5,3.1-6.5,18.5-4.2,21.9
	c0.7,1.1,3.1,2.3,4.6,2.3c0.1,0,0.2,0,0.3,0c6-1.3,11.7-2.7,16.1-5.5c8.8-5.6,17.3-11.9,25.7-17.9c3.2-2.4,6.5-4.7,9.7-7
	c0.3-0.2,0.6-0.5,1-0.9c0.7-0.7,1.5-1.4,2.5-1.8c1.4-0.6,2.7-0.8,4.1-1.1c0.5-0.1,1-0.2,1.5-0.3c0.1,0,0.3,0,0.4,0
	c0.4,0,0.8,0.1,1.1,0.3c0.5,0.3,0.8,0.8,0.9,1.3c0.1,0.5,0.2,1,0.4,1.6c0.4,1.4,0.9,3.1,0.4,4.7c-0.9,3.7-2.1,7.4-3.3,10.9
	c-0.5,1.5-1,3-1.5,4.5c-0.2,0.6-0.3,1.1-0.5,1.7c1-0.8,2-1.6,3-2.4c12.7-11.4,25.9-16.9,40.2-16.9c2.3,0,4.6,0.1,7,0.4
	c1.9,0.2,3.7,1.2,5,2c1.5,0.9,1,2.7,0.7,3.6c-0.2,0.9-0.7,2.6-2.4,2.6c-1.9,0-3.6-0.3-5.1-0.8c-1.7-0.6-3.5-0.9-5.4-0.9
	c-4.3,0-8.5,1.6-12.7,3c-16.4,6-27.9,18-37.8,30c-0.1,0.2-0.3,0.4-0.5,0.7c-0.4,0.7-0.9,1.5-1.8,2c-0.9,0.6-2,0.9-2.9,1.2
	c-0.3,0.1-0.7,0.2-1,0.3c-0.2,0.1-0.5,0.1-0.7,0.1c-0.3,0-0.6-0.1-0.9-0.2c-0.5-0.3-0.9-0.7-1-1.3c-0.1-0.3-0.2-0.7-0.4-1.1
	c-0.4-1.1-1-2.5-0.5-3.9c1.3-4.2,2.8-8.5,4.3-12.5c0.7-2,1.4-3.9,2.1-5.9c0.7-2.1,1.4-4.2,2.1-6.2c-1.1,0.8-2.3,1.5-3.5,2.2
	c-3,1.8-5.9,3.7-8.9,5.5c-7.9,5-16.1,10.1-24.4,14.7c-4.4,2.4-9.9,3-14.3,3.3c-0.4,0-0.8,0-1.3,0c-7.8,0-12.6-4.6-13.6-12.8
	c-0.3-2.4-0.2-4.8-0.1-7.1c0-0.2,0-0.3,0-0.5c-2.9,2.1-5.8,4.2-8.6,6.3c-7,5.1-14.2,10.4-21.9,14.8c-15,8.6-29.8,16.3-47.1,16.3
	c-3.3,0-6.6-0.3-9.9-0.9c-17.1-3-30-13.2-39.4-21.7c-9.9-9-19.5-18.8-28.7-28.2c-3.2-3.3-6.5-6.6-9.7-9.8c-0.8-0.8-1.4-1.7-2-2.6
	l-1.7,59.8c0,0.8-0.5,1.4-1.2,1.8c0.7,0.2,1.3,0.8,1.4,1.6c0.1,0.7,0.3,1.4,0.4,2.1c0.3,1.6,0.6,3.3,0.7,5.1
	c0.3,7.5,0.5,15.1,0.8,22.5c0.5,14,0.9,28.5,1.7,42.8c0.5,9.4,1.7,19,2.8,28.2c0.4,3.3,0.8,6.6,1.2,9.8c0.1,0.6,0.5,1.4,1,2.4
	c0.2,0.5,0.5,0.9,0.7,1.4c0.2,0.4,0.2,0.8,0.1,1.3c-0.4,2-1.1,3.7-1.8,5.3c-0.3,0.7-0.9,1.1-1.6,1.2
	C193.5,452.9,193.4,452.9,193.3,452.9z M365.7,264.5c-0.3,0-0.8,0.1-1.7,0.3c-15.5,5.7-34.6,24.4-37.6,35.7c0.2-0.1,0.3-0.1,0.5-0.2
	c2.4-0.9,4.6-1.7,6.3-3.1c10.6-8.4,20.7-16.9,29.9-25.2c1.4-1.2,2.1-4.2,2.6-6.6l0.1-0.5c0.1-0.2,0.1-0.4,0.1-0.5
	C365.8,264.5,365.8,264.5,365.7,264.5z M135.7,229.1c-2,0-3.5,0.7-4.8,4c-3,7.8,0.7,19.9,7.5,24.5c7.5,5.1,15.4,7.6,23.6,7.6
	c0,0,0,0,0,0c5.6,0,11.4-1.2,17.4-3.5c1.3-0.5,1.6-0.9,1.7-1c0,0-0.2-0.5-1.2-1.5c-10.6-10-22.4-20.4-37.4-28.4
	C139.6,229.6,137.4,229.1,135.7,229.1z M498.6,429c-2.6,0-5.1-0.5-7.6-1.7c-0.2-0.1-0.4-0.2-0.5-0.3c-4.8-4.4-6.7-9-5.7-14.6
	c0-0.3,0.1-0.5,0.3-0.7c0,0,0,0,0,0c-1,0-1.8-0.7-2-1.7l-1-7c-0.1-0.8,0.3-1.6,0.9-2c-0.1-0.1-0.2-0.1-0.3-0.2
	c-0.4-0.4-0.6-0.9-0.6-1.4c0-3.5,0-7,0-10.9c0-0.1,0-0.3,0-0.4c0-0.1,0-0.2,0-0.2c0.5-4.8,1-9.6,1.5-14.4
	c1.2-11.3,2.4-23.1,3.9-34.6c1.1-8.7,3.2-17.1,5.3-26l0.5-1.9c0-0.2,0.1-0.3,0.2-0.5c0.2-2.2,0.7-4.4,1.6-6.8c0.2-0.4,0.5-0.8,0.8-1
	c-0.6-0.5-0.9-1.3-0.7-2.1l1-4c0.2-0.9,1-1.5,1.9-1.5c0.1,0,0.1,0,0.2,0l1.4,0.1c1.1,0.1,1.9,1.1,1.8,2.2c-0.1,1.4-0.3,2.9-0.8,4.7
	c-0.1,0.3-0.2,0.6-0.4,0.8c0.3,0.5,0.5,1.1,0.3,1.6l-1.6,6.6c0,0.1,0,0.1-0.1,0.2c0,0,0,0,0,0c-0.6,3.5-1.2,6.9-1.9,10.4
	c-1.4,7.7-2.9,15.6-4,23.4c-0.9,6.2-1.7,12.6-2.5,18.8c-1,7.8-2,16-3.3,24.1c0,0.1,0,0.2-0.1,0.3c0.3,3.7,0.3,7.4,0.3,11
	c0,0.7-0.3,1.3-0.8,1.6c0.3,0.3,0.5,0.6,0.5,1c0.3,1.5,0.6,2.9,1.1,4.7c0,0.1,0,0.3,0.1,0.4c0,1.2-0.1,2-0.2,2.7
	c-0.1,0.4-0.2,0.8-0.5,1.1c0.3,0.2,0.6,0.5,0.8,0.8l0.7,1.4c0.5,1,1,2,1.5,3c2.1,4.2,3.6,5.1,5.3,5.1c1.2,0,2.8-0.5,4.9-1.4
	c1.2-0.5,2.3-1.3,3.6-2c1.5-0.9,3.1-1.9,4.8-2.6c0.7-0.3,1.5-0.4,2.3-0.4c0.8,0,1.5,0.1,2.3,0.2c0.6,0.1,1.1,0.1,1.5,0.2
	c0.7,0,1.3,0.4,1.6,0.9s0.4,1.3,0.1,1.9c-0.2,0.4-0.4,1-0.6,1.6c-0.5,1.7-1.1,3.7-2.8,4.5l-1.2,0.6C508.3,426.8,503.7,429,498.6,429
	z M501.5,294c-0.1,0-0.1,0-0.2,0l-1.8-0.2c-0.6-0.1-1.1-0.4-1.5-0.9c-0.3-0.5-0.4-1.1-0.2-1.7c0.4-1.3,0.8-2.7,1.7-4
	c0.4-0.6,1-0.9,1.7-0.9c0.1,0,0.2,0,0.3,0c0.8,0.1,1.4,0.7,1.6,1.5c0.4,1.6,0.4,3,0.4,4.3c0,0.6-0.2,1.1-0.7,1.5
	C502.5,293.8,502,294,501.5,294z M685.2,227.7c-0.7,0-1.3-0.2-1.7-0.6c-1.2-1.2-2-2.6-2.8-4.1c-0.2-0.4-0.5-0.8-0.7-1.3
	c-0.4-0.7-0.9-1.3-1.3-2c-0.9-1.3-1.9-2.7-2.3-4.3c-0.5-1.6-0.1-3.2,0.2-4.6c0.1-0.5,0.2-1,0.3-1.5c0.1-0.6,0.4-1.1,0.9-1.4
	c0.3-0.2,0.7-0.3,1.1-0.3c0.2,0,0.4,0,0.6,0.1c0.5,0.2,1,0.3,1.6,0.4c1.6,0.4,3.4,0.8,4.5,2.1c1.9,2.2,3,5.2,3.8,7.7
	c0.7,2,1,4.4,0.8,6.7C689.9,227.1,685.8,227.7,685.2,227.7z"/>
<path class="st0" d="M266.9,190.8c23.4-26.7,46.6-53.1,69.9-79.4c1.4-1.6,2.9-3.9,4.6-4.3c2-0.4,5,0.3,6.3,1.7
	c0.8,0.9,0.1,4.4-1.1,5.8c-2.6,3.2-6,5.6-8.9,8.5C310.2,152,283,181,255.2,209.5c-16.1,16.4-32.5,32.6-51.9,45.3
	c-3.3,2.2-6.7,4.3-10.4,6.7c4.2,4.5,8.1,8.8,12.2,13c13.6,13.9,26.4,28.7,42.9,39.5c17.4,11.4,35.3,12.8,54,3.9
	c5.7-2.7,11.3-5.4,17.4-8.4c-4.3-7.5-1.4-13.5,2.2-19.3c8.8-13.8,20.8-24.1,35-32.1c0.4-0.2,0.9-0.4,1.3-0.7
	c7.7-3.6,13.3-3.1,16.4,1.3c3.5,5.1,1.6,14.6-3.8,19.3c-4,3.5-7.6,20-4.6,24.5c1.2,1.9,4.9,3.6,6.9,3.2c5.8-1.2,11.9-2.7,16.8-5.8
	c12.2-7.8,23.7-16.6,35.4-25c1.1-0.8,1.9-2,3.1-2.5c1.7-0.7,3.5-0.9,5.3-1.3c0.3,1.8,1.3,3.8,0.9,5.5c-1.3,5.2-3.1,10.2-4.7,15.3
	c-0.6,1.8-1.1,3.7-1.6,5.5l1,0.8c2.1-1.7,4.3-3.2,6.3-5c13-11.6,27.8-18.2,45.6-16c1.5,0.2,2.9,0.9,4.2,1.7c0.2,0.1-0.4,2.5-0.6,2.5
	c-1.5,0-3-0.2-4.4-0.7c-6.8-2.4-13.2-0.1-19.4,2.2c-16.2,5.9-28,17.7-38.7,30.7c-0.6,0.8-1,1.8-1.8,2.4c-1,0.7-2.3,0.9-3.4,1.3
	c-0.3-1.3-1.3-2.8-0.9-3.9c2-6.2,4.3-12.3,6.4-18.4c1.1-3.1,2-6.2,3.1-9.3l-1.2-1.1c-2.1,1.3-4.1,2.7-6.2,4
	c-11,6.8-21.9,13.9-33.2,20.2c-3.9,2.1-8.9,2.8-13.5,3c-7.5,0.4-11.8-3.5-12.8-11c-0.4-3.2-0.1-6.6-0.1-10.1c-1,0.1-1.6,0-2,0.2
	c-10.5,7.3-20.5,15.5-31.6,21.8c-17.1,9.8-34.7,18.8-55.6,15.2c-15.2-2.7-27.4-11.3-38.4-21.3c-13.3-12.1-25.7-25.2-38.4-37.9
	c-1.4-1.4-2.2-3.3-3.3-5l-2,1.2l-1.8,62.4l-1.6,0v-60.8c-6.3,1.3-11.6,2.7-17,3.5c-10.8,1.6-20.8-1.2-30.1-6.6
	c-10.1-5.9-15.9-19.6-13.4-31c2.3-10.6,11.8-15.5,22-9.6c11,6.4,20.9,14.7,31.1,22.4c2.5,1.8,4.5,4.2,7.4,7
	c0.5-8.2,0.4-15.4,1.3-22.4c3.3-25.2,6.7-50.5,10.5-75.6c2.5-16.6,5.7-33.1,8.8-49.6c0.7-3.6,1.8-7.2,3.7-10.3
	c1.1-1.9,4.5-4.1,6.1-3.6c2.4,0.7,4.6,3.4,6,5.8c0.4,0.7-1.9,4.4-3.1,4.4c-3.7,0.2-4.4,2.6-5,5.2c-3.6,16.4-7.6,32.8-10.6,49.3
	c-4.5,24.7-8.3,49.6-12.1,74.4c-1.1,7.5-1.2,15.3-1.6,22.9c-0.1,1.6,0.5,4.4,1.5,4.8c1.4,0.6,3.9,0,5.3-1.1
	c11.9-9.1,24.3-17.6,35.3-27.7C242.7,216.7,254.4,203.6,266.9,190.8 M143.3,229c-8.1-3.3-12-2.3-14.2,3.4
	c-3.3,8.6,0.7,21.8,8.2,26.9c13.5,9.1,27.8,10.2,42.8,4.3c3.6-1.4,3.7-3.3,1.1-5.8C169.8,246.9,157.9,236.8,143.3,229 M363.4,262.9
	c-17.5,6.5-39.7,28.9-39.4,40.8c3.7-1.7,7.6-2.6,10.4-4.8c10.2-8.1,20.3-16.5,30-25.3c2-1.8,2.7-5.3,3.3-8.2
	C368.3,262.8,366.7,261.8,363.4,262.9 M427.6,299.3l-0.1,0.3C427.4,299.6,427.7,299.5,427.6,299.3 M789.4,523.4
	c5.5,0.3,7.8,3.6,8.5,8.7c0.5,4.1,1,8.3,1.9,12.3c1.6,7.5,6.2,10.2,13.6,7.9c11.2-3.4,19.6-11.2,28.3-18.3c2.8-2.3,5.4-5,8.4-7.1
	c1-0.8,2.9-0.4,4.3-0.6c-0.4,1.4-0.4,3.5-1.4,4.2c-10.4,7.5-20.9,14.8-31.4,22c-1.7,1.2-3.9,1.8-6,2.5c-10.8,3.6-17.3,0-20-11.2
	c-0.9-3.7-1.3-7.5-2.1-11.3c-0.8-4-3.3-5.1-6.5-2.7c-3.4,2.6-6.7,5.5-9.6,8.6c-3.7,4.1-6.8,8.6-10.4,12.8c-1.2,1.3-3.2,2-4.8,2.9
	l-2.2-5.5c-1.2,0.7-2.5,1.3-3.8,2.1c-4.3,2.8-8.5,6-13,8.4c-9.1,4.8-14.8,1.7-15.7-8.6c-0.3-3.2,0.5-6.6,0.8-9.9
	c0.2-1.8,0.5-3.5,0.9-6.8c-2.7,1.9-4.2,2.9-5.6,4c-8.6,6.5-17,13.3-25.8,19.5c-4.1,2.8-9.2,5.1-13.9,1.4c-4.8-3.8-4.5-9.4-3.3-14.8
	c0.8-3.6,2.2-7,3.1-10.5c0.9-3.8,1.5-7.7,2.3-11.5l-1.7-1.3c-4.5,1.5-9.1,2.7-13.3,4.6c-18.4,8.6-33.3,21.9-47,36.6
	c-1.4,1.5-2.4,3.2-3.8,4.6c-1,0.9-2.4,1.4-3.6,2.1c-0.6-1.4-1.8-2.8-1.7-4.2c0.5-8.1,1.5-16.3,1.8-24.4c0.3-8.5-0.1-17,0.1-25.4
	c0-1.8,1.4-3.6,2.1-5.4c1.1,1.5,3.2,3,3.2,4.5c-0.2,13.5-0.8,26.9-1.3,40.4c-0.1,1.4-0.3,2.8-0.5,4.9c8.1-7.1,15.4-13.9,23-20.2
	c10.7-9,22.3-16.3,35.8-20.3c6.3-1.8,8.3-1.1,12,4c1.6-3,2.9-6.2,4.9-8.8c1.1-1.4,3.3-1.9,5-2.8c0.1,1.9,1,4.2,0.2,5.6
	c-4.3,8.4-9,16.7-13.6,25c-0.2,0.4-0.7,0.9-0.7,1.3c0,3.8,0.2,7.7,0.3,11.5c3.2-0.7,6.9-0.6,9.6-2.2c16.2-9.9,29.9-22.7,42-37.3
	c0.4-0.5,0.7-1.3,1.2-1.6c1.5-0.7,3.1-1.2,4.6-1.8c-0.1,1.6,0.1,3.3-0.5,4.7c-3.7,8.7-7.8,17.2-11.3,25.9c-1.1,2.8-1,6.2-0.8,9.4
	c0.3,5.5,3.5,7.6,8,4.6c8.8-5.9,17.5-12.1,25.4-19.2c7.1-6.3,12.9-13.9,19.5-20.7c1.5-1.5,3.9-2.2,5.8-3.3c-0.3,2.3-0.6,4.5-1,6.8
	c-0.2,0.8-0.7,1.5-1.3,2.8C788.7,523.1,789,523.3,789.4,523.4 M764.1,544.8l0.4,0.5C764.5,545.1,764.5,544.8,764.1,544.8
	 M729.4,533.7l0.1-0.3C729.5,533.4,729.2,533.5,729.4,533.7 M195,445.9c-0.4,1.9-1,3.4-1.7,5c-1.1-1.4-3-2.6-3.1-4.1
	c-1.6-19.9-3-39.8-4.2-59.7c-1-16.3-1.9-32.5-2.7-48.8c-0.1-2.4,0.2-4.9,0.3-7.3l2,0c0.4,2.3,1,4.6,1.1,7
	c0.8,21.8,1.3,43.6,2.5,65.3c0.7,12.8,2.5,25.5,4,38.2C193.3,442.9,194.2,444.2,195,445.9 M497,311c-2,11.3-4.3,22.5-5.9,33.8
	c-2,14.1-3.5,28.3-5.8,42.8c-0.7,0.4-1,0.3-1.2,0.3c1.8-16.3,3.3-32.7,5.4-49c1.2-9.2,3.5-18.3,5.8-27.7
	C496.2,311,496.6,311,497,311 M491.8,425.5c-3.9-3.5-6-7.4-5.1-12.8c0.7,1.5,1.5,2.9,2.2,4.4c3.2,6.5,6.2,7.7,12.8,4.6
	c2.9-1.3,5.4-3.4,8.3-4.6c1.5-0.6,3.6,0,5.4,0.1c-0.8,1.7-1.1,4.5-2.4,5.1C506.5,425.4,499.8,429.1,491.8,425.5 M681.6,220.7
	c-1.3-2.2-2.9-3.8-3.5-5.8c-0.5-1.6,0.3-3.5,0.6-5.2c1.8,0.6,4.1,0.7,5.2,1.9c1.6,1.9,2.6,4.6,3.5,7.1c0.6,1.9,0.8,4,0.7,5.9
	c0,0.5-2.8,1.5-3.3,1.1C683.5,224.4,682.7,222.6,681.6,220.7 M486.4,407.1c0,1.1-0.1,1.8-0.2,2.5l-1.3,0.1l-1-7l1.4-0.3
	C485.7,403.9,486,405.3,486.4,407.1 M484.1,388.5c0.3-0.4,0.5-0.4,1.1-0.4c0.4,3.8,0.4,7.5,0.4,11.3l-1.5,0
	C484.1,395.9,484.1,392.4,484.1,388.5 M497.1,310.7c-0.5,0.4-0.9,0.4-1.6,0.4c0.2-2.1,0.6-4.3,1.6-6.7c0.9-0.3,1.3-0.3,1.7-0.3
	C498.2,306.1,497.7,308.2,497.1,310.7 M497.2,301l1-4l1.4,0.1c-0.1,1.4-0.3,2.8-0.7,4.4C498.1,301.5,497.7,301.3,497.2,301
	 M501.1,288.3c0.4,1.3,0.4,2.5,0.4,3.8l-1.8-0.2C500,290.6,500.4,289.4,501.1,288.3"/>
<path class="st0" d="M497.7,306c-0.2,0-0.4,0-0.6,0c-0.8,0-1.5-0.6-1.8-1.3c-0.4-1.2-0.3-2.4-0.1-3.5c0.1-0.9,0.8-1.5,1.6-1.7
	c1.2-0.2,2.2,0.3,2.9,0.7c0.4,0.2,0.8,0.7,1,1.1c0.4,1.1,0.3,1.9,0.2,2.8c-0.1,0.6-0.4,1.1-0.9,1.4C499.1,305.9,498.4,306,497.7,306
	z"/>
<path class="st0" d="M497.1,301.4c0.5-0.1,1,0.2,1.6,0.5c0.2,0.6,0.2,1,0.1,1.8c-0.5,0.3-0.9,0.3-1.7,0.3
	C496.9,303.2,497,302.5,497.1,301.4"/>
</svg>
