<svg xmlns="http://www.w3.org/2000/svg" viewBox="0 0 974 793" xml:space="preserve"><path fill="#B299D3" d="M681 794H1V1h974v793zM499.23 301.316l.405-4.136-1.418-.146a245 245 0 0 1-1.183 4.699c-.052.743-.104 1.486-.44 2.902-.467 2.133-.934 4.266-1.786 7.054-1.787 9.126-4.049 18.19-5.256 27.391-2.136 16.274-3.63 32.633-5.487 49.865v10.405l1.538-.012c0-3.753 0-7.506.246-12.006 1.74-14.165 3.254-28.362 5.29-42.483 1.633-11.328 3.899-22.565 6.061-34.548.52-2.085 1.04-4.17 1.757-6.917.02-.458.042-.915.274-2.068m289.73 221.676c-.15-.134-.3-.268-.268-1.09.38-.74.955-1.444 1.104-2.229.424-2.238.675-4.51.994-6.768-1.964 1.074-4.333 1.754-5.823 3.288-6.61 6.807-12.482 14.405-19.546 20.675-7.915 7.025-16.58 13.294-25.404 19.165-4.536 3.019-7.7.891-8.045-4.566-.197-3.113-.346-6.565.757-9.362 3.455-8.755 7.58-17.244 11.277-25.907.595-1.393.335-3.15.47-4.74-1.553.58-3.146 1.075-4.637 1.784-.531.253-.787 1.049-1.213 1.56-12.14 14.541-25.805 27.416-42.048 37.27-2.667 1.619-6.382 1.508-9.614 2.196-.108-3.844-.241-7.688-.29-11.533-.006-.43.468-.863.709-1.301 4.568-8.313 9.261-16.562 13.579-25.002.746-1.458-.102-3.731-.213-5.627-1.699.917-3.93 1.435-4.982 2.837-1.96 2.612-3.234 5.739-4.867 8.787-3.714-5.13-5.737-5.835-12.014-3.985-13.508 3.981-25.157 11.341-35.822 20.302-7.591 6.379-14.897 13.098-22.974 20.235.216-2.077.44-3.468.494-4.865.514-13.456 1.11-26.911 1.338-40.372.025-1.489-2.09-3.013-3.213-4.521-.733 1.79-2.06 3.566-2.1 5.37-.19 8.472.24 16.962-.064 25.426-.291 8.14-1.306 16.253-1.759 24.392-.076 1.37 1.089 2.81 1.68 4.218 1.212-.701 2.608-1.209 3.592-2.149 1.433-1.37 2.49-3.126 3.846-4.588 13.684-14.733 28.535-28.016 46.976-36.6 4.246-1.976 8.881-3.118 13.337-4.644l1.67 1.258c-.743 3.842-1.343 7.72-2.268 11.518-.864 3.548-2.317 6.96-3.072 10.526-1.135 5.357-1.444 10.986 3.331 14.75 4.714 3.715 9.87 1.416 13.937-1.43 8.84-6.188 17.248-12.995 25.848-19.528 1.446-1.1 2.97-2.097 5.637-3.97-.446 3.304-.729 5.054-.909 6.813-.337 3.299-1.115 6.648-.826 9.898.917 10.307 6.621 13.46 15.723 8.64 4.535-2.404 8.654-5.587 12.99-8.374 1.255-.807 2.607-1.462 3.803-2.125l2.207 5.493c1.633-.951 3.648-1.569 4.828-2.917 3.613-4.127 6.708-8.714 10.387-12.776 2.875-3.175 6.133-6.084 9.566-8.648 3.173-2.37 5.683-1.322 6.5 2.693.764 3.749 1.208 7.568 2.09 11.286 2.652 11.18 9.183 14.819 19.975 11.227 2.048-.682 4.237-1.282 5.982-2.475 10.562-7.217 21.057-14.536 31.433-22.016.958-.69.932-2.747 1.363-4.17-1.465.17-3.284-.154-4.325.6-2.956 2.138-5.537 4.785-8.368 7.107-8.744 7.17-17.106 14.953-28.3 18.344-7.393 2.24-12.083-.404-13.644-7.91-.846-4.069-1.353-8.213-1.89-12.34-.661-5.072-3.007-8.396-8.926-9.13M585.705 342.466c.242-1.479.387-2.982.742-4.433 1.856-7.598 3.822-15.17 5.629-22.78.736-3.099-.061-6.31-3.442-6.524-1.928-.123-5.018 1.978-5.842 3.847-1.788 4.052-2.498 8.587-3.573 12.944-2.506 10.147-4.643 20.4-7.564 30.426-1.855 6.365-4.791 12.423-7.34 18.578-15.89 38.371-33.697 75.79-55.114 111.437-2.264 3.769-3.848 4.441-8.058 2.25-22.611-11.764-45.567-12.963-68.275-.25-7.35 4.114-13.553 9.82-16.621 18.024-3.368 9.006.399 16.515 9.63 19.005 3.652.986 7.621 1.803 11.32 1.435 14.402-1.433 28.752-3.376 43.123-5.112 1.346-.163 2.706-.205 5.191-.384-1.59 2.352-2.388 3.764-3.403 4.998-7.084 8.613-13.905 17.469-21.398 25.714-12.956 14.257-27.4 26.684-45.063 35.04-17.983 8.508-40.81 5.741-50.675-17.874-1.525-3.65-4.343-5.618-8.406-4.14-3.807 1.385-4.694 4.503-3.78 8.152.522 2.088 1.248 4.166 2.185 6.101 7.496 15.47 27.648 26.147 44.831 24.395 15.257-1.555 27.823-8.8 39.57-17.798 20.596-15.775 36.864-35.624 51.304-56.9 5.23-7.705 10.982-12.48 20.395-13.672 8.212-1.039 8.123-1.702 13.049 5.261 15.114 21.365 24.798 45.156 31.63 70.262.983 3.611 1.186 9.1 6.617 8.48 4.913-.562 4.497-5.762 4.68-9.359 1.395-27.6 2.607-55.209 3.76-82.82.34-8.148.167-8.164 8.14-10.509 16.3-4.794 32.646-9.436 48.87-14.474 3.695-1.147 9.644-.539 9.224-6.957-.234-3.57-3.893-3.956-11.68-1.393-15.507 5.108-30.987 10.299-46.496 15.402-1.984.653-4.071.99-7.11 1.711 2.714-49.81 6.337-98.686 13.95-148.083m3.439-115.916c-3.618 10.732-7.383 21.417-10.805 32.21-2.465 7.774-4.627 15.655-6.553 23.578-.369 1.517.991 3.455 1.553 5.199 1.62-.533 3.408-.798 4.807-1.68 1.206-.759 1.981-2.211 2.927-3.373 4.52-5.554 8.939-11.195 13.602-16.627 1.717-2 4.007-3.51 7.14-6.187.603 4.014 1.052 6.39 1.302 8.785.604 5.787.647 11.677 1.776 17.354 1.597 8.035 7.059 11.061 14.9 8.414 4.207-1.42 8.623-3.177 11.998-5.94 10.412-8.522 20.422-17.542 30.434-26.54 1.263-1.135 1.606-3.294 2.376-4.98l2.264 1.95c-.195 1.253-.514 2.502-.563 3.76-.188 4.785-1.008 9.688-.268 14.335 1.376 8.643 7.307 12.294 15.698 9.7 4.853-1.5 9.868-3.638 13.783-6.773 9.2-7.368 17.78-15.51 26.616-23.333 1.34-1.186 2.701-2.349 4.052-3.522l1.324 1.003c-1.947 4.494-4.039 8.934-5.746 13.517-.483 1.297.156 3.012.28 4.536 1.402-.57 3.181-.783 4.129-1.784 2.163-2.286 3.78-5.08 5.867-7.45 6.54-7.426 13.194-14.752 17.885-19.978 6.985 5.709 13.189 10.764 19.377 15.839 9.46 7.757 19.972 11.577 32.42 9.586 14.787-2.366 27.106-9.839 38.984-18.233 1.465-1.035 1.84-3.615 2.72-5.48-2.03.367-4.431.164-6.023 1.202-6.128 3.997-11.774 8.758-18.005 12.571-21.552 13.19-47.018 6.004-56.677-16.02 1.362-.143 2.624-.271 3.885-.407 7.678-.825 14.593-3.362 20.003-9.124 2.792-2.974 4.612-6.503 2.475-10.412-2.208-4.04-6.42-5.034-10.45-3.844-4.887 1.442-10.176 2.963-14.08 6.004-9.424 7.343-18.195 15.534-27.084 23.543-1.119 1.008-1.37 2.979-2.022 4.504l-2.874-2.298c2.793-5.525 4.929-11.523 8.497-16.492 13.051-18.179 24.931-37.054 34.557-57.237 5.074-10.639 9.164-21.76 13.344-32.798.655-1.73-.58-4.174-.942-6.288-2.09.942-4.681 1.405-6.153 2.94-2.143 2.236-3.73 5.122-5.121 7.943-9.944 20.157-20.215 40.168-29.508 60.623-7.46 16.42-14.428 32.82-28.084 45.471-10.655 9.87-20.844 20.256-34.255 26.39-9.79 4.477-14.71.972-14.418-9.724.028-.997-.017-2.047.275-2.977 2.72-8.684 5.607-17.318 8.184-26.044.471-1.598-.243-3.546-.41-5.332-1.499.71-3.445 1.04-4.422 2.192-4.84 5.704-9.107 11.916-14.16 17.41-11.425 12.425-23.692 23.952-39.028 31.545-7.16 3.545-10.252 1.86-11.177-6.027-.754-6.431-.498-13.008-1.593-19.365-1.462-8.484-7.729-10.404-14.046-4.45-3.86 3.638-7.092 7.937-10.652 11.898-.755.84-1.71 1.502-2.573 2.245l-1.078-.712c.832-2.805 1.491-5.676 2.525-8.405 8.086-21.338 16.2-42.666 24.415-63.954 1.829-4.74 4.42-9.206 5.97-14.02.51-1.585-.636-5.026-1.93-5.612-3.377-1.525-7.32-2.881-10.921-2.63-13.267.927-26.498 2.433-39.72 3.919-8.538.96-17.038 2.263-25.445 3.397-.289-.915-.547-1.283-.458-1.52.934-2.476 1.986-4.909 2.888-7.396 5.399-14.893 11.203-29.565 20.298-42.737 1.024-1.484.929-5.272-.215-6.397-2.254-2.215-4.917-.783-6.696 1.703-.581.813-1.276 1.59-1.66 2.492-5.196 12.246-10.374 24.5-15.457 36.793-.405.98-.24 2.286-.065 3.397.82 5.204-5.61 14.728-10.707 15.681-37.62 7.033-75.315 13.697-112.827 21.264-13.657 2.755-26.918 7.538-40.262 11.71-1.73.54-2.87 2.963-4.284 4.515 2.11.699 4.18 1.608 6.345 2.005 1.011.185 2.2-.633 3.315-.972 14.014-4.265 27.84-9.352 42.083-12.619 30.979-7.104 62.163-13.316 93.283-19.797 4.762-.992 9.63-1.476 15.37-2.333-8.78 32.621-18.978 63.724-24.213 96.045 1.027-.116 1.59-.371 1.695-.752 4.236-15.442 8.195-30.964 12.698-46.327 4.45-15.181 9.327-30.241 14.329-45.251.711-2.135 2.981-5.013 4.867-5.296 15.961-2.39 31.971-4.556 48.03-6.14 6.797-.67 13.746.212 21.71.417a50387 50387 0 0 0-15.625 44.004m-322.53-35.45c-12.206 12.532-23.882 25.645-36.781 37.418-11.02 10.058-23.397 18.637-35.307 27.694-1.344 1.021-3.838 1.613-5.274 1.055-.988-.385-1.546-3.121-1.475-4.771.33-7.651.411-15.37 1.558-22.917 3.777-24.849 7.664-49.69 12.124-74.423 2.983-16.535 6.98-32.888 10.608-49.304.57-2.575 1.25-5.008 4.981-5.17 1.165-.05 3.485-3.753 3.075-4.411-1.464-2.348-3.599-5.043-6.024-5.756-1.597-.47-4.922 1.755-6.06 3.63-1.856 3.06-2.997 6.736-3.67 10.297-3.117 16.516-6.317 33.03-8.836 49.644-3.817 25.17-7.218 50.406-10.524 75.65-.918 7.013-.88 14.152-1.345 22.394-2.94-2.81-4.975-5.198-7.428-7.026-10.248-7.636-20.104-15.994-31.1-22.372-10.159-5.893-19.64-.95-21.988 9.612-2.543 11.436 3.32 25.177 13.4 31.03 9.317 5.41 19.3 8.27 30.137 6.643 5.36-.804 10.634-2.182 16.982-3.519v60.76l1.608-.014 1.789-62.352 2.006-1.197c1.09 1.688 1.922 3.631 3.309 5.023 12.694 12.748 25.08 25.844 38.373 37.942 10.986 9.997 23.197 18.574 38.427 21.253 20.904 3.676 38.563-5.387 55.643-15.16 11.07-6.334 21.085-14.513 31.595-21.833.33-.23.91-.105 1.95-.195 0 3.464-.334 6.805.068 10.056.934 7.552 5.235 11.483 12.777 11.034 4.561-.271 9.58-.89 13.461-3.036 11.324-6.261 22.185-13.361 33.215-20.153 2.1-1.293 4.145-2.677 6.215-4.02l1.223 1.083c-1.019 3.094-1.995 6.203-3.065 9.279-2.134 6.136-4.422 12.222-6.386 18.41-.346 1.09.575 2.58.91 3.886 1.16-.426 2.437-.674 3.438-1.337.782-.518 1.184-1.583 1.818-2.353 10.69-12.996 22.433-24.754 38.666-30.656 6.174-2.245 12.552-4.547 19.372-2.159 1.394.489 2.93.687 4.406.706.226.003.87-2.361.645-2.496-1.294-.772-2.754-1.518-4.229-1.7-17.825-2.193-32.61 4.35-45.617 15.996-1.995 1.787-4.214 3.323-6.33 4.975l-1.031-.775c.542-1.838 1.06-3.684 1.632-5.513 1.59-5.087 3.402-10.117 4.692-15.278.411-1.649-.539-3.637-.866-5.47-1.774.396-3.634.582-5.293 1.262-1.177.482-2.034 1.696-3.115 2.47-11.764 8.416-23.29 17.205-35.444 25.016-4.866 3.128-11.024 4.555-16.8 5.794-2.063.443-5.707-1.311-6.935-3.177-2.962-4.501.606-21.052 4.6-24.536 5.435-4.742 7.299-14.216 3.803-19.335-3.029-4.436-8.664-4.88-16.36-1.285-.453.211-.911.415-1.347.659-14.183 7.949-26.207 18.282-34.994 32.088-3.653 5.738-6.517 11.737-2.209 19.28-6.042 2.911-11.693 5.646-17.355 8.357-18.73 8.97-36.572 7.565-54.006-3.848-16.539-10.827-29.289-25.613-42.889-39.54-4.045-4.143-7.926-8.447-12.177-12.991 3.757-2.394 7.121-4.488 10.436-6.657 19.386-12.685 35.816-28.851 51.88-45.267 27.846-28.456 55.062-57.528 82.588-86.297 2.837-2.966 6.273-5.397 8.856-8.548 1.16-1.417 1.899-4.97 1.061-5.83-1.36-1.394-4.355-2.16-6.324-1.712-1.783.405-3.217 2.698-4.635 4.308-23.224 26.375-46.422 52.774-70.108 79.685m-71.849 254.456c-.568-1.365-1.49-2.69-1.65-4.101-1.441-12.717-3.271-25.42-3.978-38.184-1.204-21.754-1.651-43.549-2.495-65.324-.09-2.332-.702-4.644-1.071-6.965l-1.967.039c-.117 2.439-.442 4.888-.317 7.314.844 16.27 1.681 32.542 2.718 48.8a4038 4038 0 0 0 4.234 59.69c.112 1.425 2.018 2.708 3.09 4.058.626-1.562 1.252-3.123 1.436-5.327m297.36-19.836c7.676 3.405 14.325-.272 20.887-3.38 1.303-.618 1.614-3.33 2.382-5.076-1.801-.068-3.825-.694-5.356-.084-2.909 1.158-5.439 3.232-8.299 4.552-6.613 3.05-9.625 1.875-12.82-4.63-.722-1.473-1.479-2.928-2.22-4.392-.896 5.375 1.246 9.291 5.426 13.01M681.77 221.039c.974 1.57 1.737 3.365 3.04 4.583.434.407 3.224-.585 3.26-1.066.152-1.962-.05-4.074-.679-5.943-.835-2.483-1.811-5.111-3.457-7.06-1.037-1.228-3.41-1.327-5.185-1.933-.232 1.759-1.016 3.68-.556 5.234.585 1.973 2.178 3.647 3.577 6.185M486.32 406.782l-.972-4.388-1.386.305 1.024 6.968 1.256-.072c.088-.701.175-1.403.078-2.813m14.469-118.578-1.139 3.62 1.843.195c0-1.23 0-2.46-.704-3.815"/><path fill="#FBF9FD" d="M585.654 342.899c-7.562 48.964-11.185 97.84-13.899 147.65 3.039-.72 5.126-1.058 7.11-1.711 15.509-5.103 30.99-10.294 46.497-15.402 7.786-2.563 11.445-2.178 11.679 1.393.42 6.418-5.53 5.81-9.224 6.957-16.224 5.038-32.57 9.68-48.87 14.474-7.973 2.345-7.8 2.36-8.14 10.509-1.153 27.611-2.365 55.22-3.76 82.82-.183 3.597.233 8.797-4.68 9.359-5.43.62-5.634-4.869-6.616-8.48-6.833-25.106-16.517-48.897-31.631-70.262-4.926-6.963-4.837-6.3-13.05-5.26-9.412 1.19-15.165 5.966-20.394 13.671-14.44 21.276-30.708 41.125-51.304 56.9-11.747 8.998-24.313 16.243-39.57 17.798-17.183 1.752-37.335-8.925-44.83-24.395-.938-1.935-1.664-4.013-2.186-6.1-.914-3.65-.027-6.768 3.78-8.153 4.063-1.478 6.881.49 8.406 4.14 9.865 23.615 32.692 26.382 50.675 17.874 17.663-8.356 32.107-20.783 45.063-35.04 7.493-8.245 14.314-17.101 21.398-25.714 1.015-1.234 1.813-2.646 3.403-4.998-2.485.18-3.845.221-5.191.384-14.371 1.736-28.721 3.68-43.123 5.112-3.699.368-7.668-.45-11.32-1.435-9.231-2.49-12.998-10-9.63-19.005 3.068-8.204 9.272-13.91 16.62-18.024 22.709-12.713 45.665-11.514 68.276.25 4.21 2.191 5.794 1.519 8.058-2.25 21.417-35.647 39.223-73.066 55.114-111.437 2.549-6.155 5.485-12.213 7.34-18.578 2.921-10.026 5.058-20.279 7.564-30.426 1.075-4.357 1.785-8.892 3.573-12.944.824-1.869 3.914-3.97 5.842-3.847 3.38.214 4.178 3.425 3.442 6.525-1.807 7.61-3.773 15.18-5.63 22.779-.354 1.451-.5 2.954-.792 4.866m-17.768 104.3 5.023-74.698c-1.445 1.464-2.18 3.083-2.9 4.708-8.413 19.018-16.316 38.283-25.378 56.987-9.278 19.153-19.713 37.744-29.567 56.621-.872 1.671-2.043 3.883-1.597 5.413 1.272 4.366 9.667 8.535 14.182 7.354 10.944-2.862 21.818-5.998 32.79-8.745 4.116-1.031 5.521-3.135 5.635-7.335.355-13.129 1.134-26.246 1.812-40.306m-119.75 43.23c-8.979 3.19-17.067 7.681-22.066 16.198-3.448 5.873-2.191 8.548 4.372 9.84 2.268.446 4.664.788 6.938.558 15.387-1.554 30.73-3.637 46.145-4.788 7.707-.576 12.459-3.933 15.985-10.512 1.734-3.234 1.216-4.522-1.756-6.153-15.57-8.543-31.867-9.943-49.617-5.143m111.984 88.36 1.068 1.947 1.121-.18 3.191-80.09c-13.278 3.73-25.283 7.104-38.088 10.703 15.637 20.732 25.866 42.988 32.708 67.62m-49.885-74.573c-3.884-2.406-3.831.933-4.882 3.072 5.271.903 5.631.714 4.882-3.072"/><path fill="#FAF9FC" d="M589.27 226.176a90989 90989 0 0 1 15.499-43.63c-7.964-.205-14.913-1.088-21.71-.417-16.059 1.584-32.069 3.75-48.03 6.14-1.886.283-4.156 3.16-4.867 5.296-5.002 15.01-9.88 30.07-14.33 45.251-4.502 15.363-8.46 30.885-12.697 46.327-.105.38-.668.636-1.695.752 5.235-32.32 15.433-63.424 24.213-96.045-5.74.857-10.608 1.341-15.37 2.333-31.12 6.481-62.304 12.693-93.283 19.797-14.243 3.267-28.07 8.354-42.083 12.619-1.115.34-2.304 1.157-3.315.972-2.165-.397-4.235-1.306-6.345-2.005 1.414-1.552 2.555-3.975 4.284-4.516 13.344-4.17 26.605-8.954 40.262-11.709 37.512-7.567 75.206-14.231 112.827-21.264 5.097-.953 11.528-10.477 10.707-15.681-.176-1.111-.34-2.418.065-3.397 5.083-12.293 10.261-24.547 15.458-36.793.383-.903 1.078-1.679 1.66-2.492 1.778-2.486 4.441-3.918 6.695-1.703 1.144 1.125 1.24 4.913.215 6.397-9.095 13.172-14.9 27.844-20.298 42.737-.902 2.487-1.954 4.92-2.888 7.396-.09.237.17.605.458 1.52 8.407-1.134 16.907-2.438 25.445-3.397 13.222-1.486 26.453-2.992 39.72-3.919 3.6-.251 7.544 1.105 10.92 2.63 1.295.586 2.44 4.027 1.93 5.612-1.55 4.814-4.14 9.28-5.97 14.02-8.214 21.288-16.328 42.616-24.414 63.954-1.034 2.729-1.693 5.6-2.525 8.405l1.078.712c.863-.743 1.818-1.405 2.573-2.245 3.56-3.961 6.792-8.26 10.652-11.898 6.317-5.954 12.584-4.034 14.046 4.45 1.095 6.357.84 12.934 1.593 19.365.925 7.888 4.017 9.572 11.177 6.027 15.336-7.593 27.603-19.12 39.028-31.544 5.053-5.495 9.32-11.707 14.16-17.41.977-1.153 2.923-1.484 4.423-2.193.166 1.786.88 3.734.409 5.332-2.577 8.726-5.464 17.36-8.184 26.044-.292.93-.247 1.98-.275 2.977-.292 10.696 4.628 14.2 14.418 9.723 13.41-6.133 23.6-16.518 34.255-26.389 13.656-12.651 20.624-29.05 28.084-45.471 9.293-20.455 19.564-40.466 29.508-60.623 1.392-2.821 2.978-5.707 5.121-7.943 1.472-1.535 4.063-1.998 6.153-2.94.361 2.114 1.597 4.559.942 6.288-4.18 11.038-8.27 22.16-13.344 32.798-9.626 20.183-21.506 39.058-34.557 57.237-3.568 4.969-5.704 10.967-8.497 16.492l2.874 2.298c.653-1.525.903-3.496 2.022-4.504 8.89-8.01 17.66-16.2 27.084-23.543 3.904-3.041 9.193-4.562 14.08-6.004 4.03-1.19 8.242-.196 10.45 3.844 2.137 3.91.317 7.438-2.475 10.412-5.41 5.762-12.325 8.3-20.003 9.124-1.261.136-2.523.264-3.885.407 9.659 22.024 35.125 29.21 56.677 16.02 6.231-3.813 11.877-8.574 18.005-12.571 1.592-1.038 3.993-.835 6.023-1.201-.88 1.864-1.255 4.444-2.72 5.48-11.878 8.393-24.197 15.866-38.984 18.232-12.448 1.991-22.96-1.829-32.42-9.586-6.188-5.075-12.392-10.13-19.377-15.84-4.69 5.227-11.345 12.553-17.885 19.98-2.087 2.37-3.704 5.163-5.867 7.45-.948 1-2.727 1.212-4.129 1.783-.124-1.524-.763-3.24-.28-4.536 1.707-4.583 3.8-9.023 5.746-13.517l-1.324-1.003c-1.35 1.173-2.712 2.336-4.052 3.522-8.835 7.824-17.416 15.965-26.616 23.333-3.915 3.135-8.93 5.273-13.783 6.773-8.39 2.594-14.322-1.057-15.698-9.7-.74-4.647.08-9.55.268-14.334.05-1.26.368-2.508.563-3.76l-2.264-1.95c-.77 1.685-1.113 3.844-2.376 4.98-10.012 8.997-20.022 18.017-30.434 26.54-3.375 2.762-7.79 4.518-11.999 5.94-7.84 2.646-13.302-.38-14.9-8.415-1.128-5.677-1.171-11.567-1.775-17.354-.25-2.396-.699-4.77-1.302-8.785-3.133 2.677-5.423 4.187-7.14 6.187-4.663 5.432-9.081 11.073-13.602 16.627-.946 1.162-1.72 2.614-2.927 3.373-1.4.882-3.187 1.147-4.807 1.68-.562-1.744-1.922-3.682-1.553-5.2 1.926-7.922 4.088-15.803 6.553-23.576 3.422-10.794 7.187-21.48 10.93-32.585m159.393-9.417c14.17-20.836 26.344-42.678 33.966-66.848-1.436 1.04-2.46 2.32-3.211 3.745-7.828 14.858-15.739 29.675-23.345 44.647-3.067 6.037-5.44 12.427-8.46 18.85l-.147.74c.196-.281.392-.561 1.197-1.134m21.939 18.634c3.917-2.05 7.957-3.906 11.672-6.273 1.034-.659 1.107-2.827 1.62-4.303-1.511-.44-3.103-1.431-4.521-1.227-7.844 1.13-13.911 5.63-19.754 10.453l.216 1.542c3.318 0 6.635 0 10.767-.192m-43.271 16.14.284.161s-.044-.341-.284-.161m56.16-103.954s-.019-.06 0 0"/><path fill="#FAF9FC" d="M266.855 190.841c23.445-26.652 46.643-53.05 69.867-79.426 1.418-1.61 2.852-3.903 4.635-4.308 1.97-.447 4.964.318 6.324 1.713.838.86.1 4.412-1.061 5.829-2.583 3.151-6.02 5.582-8.856 8.548-27.526 28.77-54.742 57.841-82.588 86.297-16.064 16.416-32.494 32.582-51.88 45.267-3.315 2.169-6.679 4.263-10.436 6.657 4.25 4.544 8.132 8.848 12.177 12.99 13.6 13.928 26.35 28.714 42.889 39.54 17.434 11.414 35.275 12.82 54.006 3.85 5.662-2.712 11.313-5.447 17.355-8.357-4.308-7.544-1.444-13.543 2.209-19.281 8.787-13.806 20.81-24.14 34.994-32.088.436-.244.894-.448 1.347-.66 7.696-3.593 13.331-3.15 16.36 1.286 3.496 5.119 1.632 14.593-3.803 19.335-3.994 3.484-7.562 20.035-4.6 24.536 1.228 1.866 4.872 3.62 6.934 3.177 5.777-1.24 11.935-2.666 16.801-5.794 12.154-7.811 23.68-16.6 35.444-25.016 1.081-.774 1.938-1.988 3.115-2.47 1.659-.68 3.52-.866 5.293-1.263.327 1.834 1.277 3.822.866 5.471-1.29 5.161-3.101 10.191-4.692 15.278-.572 1.829-1.09 3.675-1.632 5.513l1.031.775c2.116-1.652 4.335-3.188 6.33-4.975 13.006-11.645 27.792-18.19 45.617-15.995 1.475.181 2.935.927 4.23 1.7.225.134-.42 2.498-.646 2.495-1.475-.02-3.012-.217-4.406-.706-6.82-2.388-13.198-.086-19.372 2.159-16.233 5.902-27.977 17.66-38.666 30.656-.634.77-1.036 1.835-1.818 2.353-1.001.663-2.279.91-3.437 1.337-.336-1.305-1.257-2.796-.911-3.885 1.964-6.19 4.252-12.275 6.386-18.411 1.07-3.076 2.046-6.185 3.065-9.28l-1.223-1.081c-2.07 1.342-4.115 2.726-6.215 4.02-11.03 6.79-21.89 13.89-33.215 20.152-3.881 2.147-8.9 2.765-13.46 3.036-7.543.449-11.844-3.482-12.778-11.034-.402-3.25-.068-6.592-.068-10.056-1.04.09-1.62-.036-1.95.195-10.51 7.32-20.524 15.499-31.595 21.833-17.08 9.773-34.74 18.836-55.643 15.16-15.23-2.679-27.441-11.256-38.427-21.253-13.292-12.098-25.679-25.194-38.373-37.942-1.387-1.392-2.22-3.335-3.309-5.023l-2.006 1.197-1.789 62.352-1.608.014v-60.76c-6.348 1.337-11.622 2.715-16.982 3.52-10.837 1.626-20.82-1.235-30.136-6.644-10.08-5.853-15.944-19.594-13.401-31.03 2.348-10.562 11.83-15.505 21.988-9.612 10.996 6.378 20.852 14.736 31.1 22.372 2.453 1.828 4.488 4.215 7.428 7.026.466-8.242.427-15.38 1.345-22.394 3.306-25.244 6.707-50.48 10.524-75.65 2.52-16.614 5.719-33.128 8.836-49.644.673-3.561 1.814-7.237 3.67-10.296 1.138-1.876 4.463-4.1 6.06-3.631 2.425.713 4.56 3.408 6.024 5.756.41.658-1.91 4.36-3.075 4.41-3.73.163-4.411 2.596-4.98 5.171-3.629 16.416-7.626 32.77-10.609 49.304-4.46 24.733-8.347 49.574-12.124 74.423-1.147 7.546-1.228 15.266-1.558 22.917-.07 1.65.487 4.386 1.475 4.77 1.436.559 3.93-.033 5.274-1.054 11.91-9.057 24.288-17.636 35.307-27.694 12.899-11.773 24.575-24.886 37.022-37.677m-123.562 38.127c-8.15-3.268-12.043-2.347-14.236 3.367-3.281 8.55.675 21.75 8.237 26.886 13.465 9.145 27.79 10.197 42.811 4.308 3.646-1.429 3.741-3.304 1.074-5.832-11.388-10.79-23.267-20.934-37.886-28.729m220.113 33.97c-17.46 6.483-39.722 28.882-39.378 40.75 3.738-1.673 7.598-2.572 10.4-4.801 10.233-8.139 20.266-16.55 29.997-25.278 1.98-1.777 2.67-5.301 3.318-8.164.603-2.664-1.058-3.604-4.337-2.508m64.147 36.321-.124.3s.294-.076.124-.3m361.835 224.161c5.49.307 7.837 3.63 8.498 8.704.537 4.126 1.044 8.27 1.89 12.339 1.561 7.506 6.25 10.15 13.645 7.91 11.193-3.391 19.555-11.173 28.299-18.344 2.83-2.322 5.412-4.97 8.368-7.108 1.041-.753 2.86-.43 4.325-.598-.431 1.422-.405 3.478-1.363 4.169-10.376 7.48-20.87 14.8-31.433 22.016-1.745 1.193-3.934 1.793-5.982 2.475-10.792 3.592-17.323-.048-19.975-11.227-.882-3.718-1.326-7.537-2.09-11.286-.817-4.015-3.327-5.063-6.5-2.693-3.433 2.564-6.691 5.473-9.566 8.648-3.679 4.062-6.774 8.649-10.387 12.776-1.18 1.348-3.195 1.966-4.828 2.917l-2.207-5.493c-1.196.663-2.548 1.318-3.803 2.125-4.336 2.787-8.455 5.97-12.99 8.373-9.101 4.821-14.806 1.668-15.723-8.64-.289-3.249.489-6.598.826-9.897.18-1.76.463-3.509.91-6.814-2.669 1.874-4.192 2.872-5.638 3.97-8.6 6.534-17.008 13.34-25.848 19.529-4.067 2.846-9.223 5.145-13.937 1.43-4.775-3.764-4.466-9.393-3.331-14.75.755-3.566 2.208-6.978 3.072-10.526.925-3.799 1.525-7.676 2.268-11.518l-1.67-1.258c-4.456 1.526-9.09 2.668-13.337 4.645-18.441 8.583-33.292 21.866-46.976 36.6-1.357 1.46-2.413 3.217-3.846 4.587-.984.94-2.38 1.448-3.592 2.149-.591-1.408-1.756-2.848-1.68-4.218.453-8.139 1.468-16.251 1.76-24.392.302-8.464-.126-16.954.063-25.425.04-1.805 1.367-3.582 2.1-5.371 1.123 1.508 3.238 3.032 3.213 4.52-.229 13.462-.824 26.917-1.338 40.373-.053 1.397-.278 2.788-.494 4.865 8.077-7.137 15.383-13.856 22.974-20.235 10.665-8.96 22.314-16.32 35.822-20.302 6.277-1.85 8.3-1.144 12.014 3.985 1.633-3.048 2.907-6.175 4.867-8.787 1.053-1.402 3.283-1.92 4.982-2.837.111 1.896.959 4.169.213 5.627-4.318 8.44-9.011 16.689-13.579 25.002-.24.438-.715.87-.71 1.3.05 3.846.183 7.69.291 11.534 3.232-.688 6.947-.577 9.614-2.195 16.243-9.855 29.908-22.73 42.048-37.272.426-.51.682-1.306 1.213-1.559 1.49-.71 3.084-1.204 4.637-1.784-.135 1.59.125 3.347-.47 4.74-3.698 8.663-7.822 17.152-11.277 25.907-1.103 2.797-.954 6.249-.757 9.362.345 5.457 3.51 7.585 8.045 4.566 8.823-5.87 17.49-12.14 25.404-19.165 7.064-6.27 12.936-13.868 19.546-20.675 1.49-1.534 3.859-2.214 5.823-3.288-.32 2.259-.57 4.53-.994 6.768-.15.785-.724 1.489-1.31 2.75.163.68.532.838.901.996m-25.279 21.4.405.527c-.03-.252-.062-.503-.405-.528m-34.706-11.08.127-.326s-.323.09-.127.327"/><path fill="#EAE3F3" d="M194.986 445.877c-.405 1.883-1.03 3.444-1.656 5.006-1.073-1.35-2.98-2.633-3.091-4.058a4038 4038 0 0 1-4.234-59.69c-1.037-16.258-1.874-32.53-2.718-48.8-.125-2.426.2-4.875.317-7.314l1.967-.04c.37 2.322.98 4.634 1.07 6.966.845 21.775 1.292 43.57 2.496 65.324.707 12.763 2.537 25.467 3.977 38.184.16 1.411 1.083 2.736 1.872 4.422"/><path fill="#EFE9F6" d="M497.023 311.006c-1.985 11.278-4.251 22.515-5.884 33.843-2.036 14.121-3.55 28.318-5.775 42.847-.725.356-.966.348-1.206.34 1.763-16.323 3.258-32.682 5.394-48.956 1.207-9.202 3.47-18.265 5.753-27.728.904-.34 1.311-.343 1.718-.346"/><path fill="#FAF9FC" d="M491.806 425.507c-3.86-3.506-6.003-7.422-5.107-12.797.741 1.464 1.498 2.92 2.22 4.392 3.195 6.505 6.207 7.68 12.82 4.63 2.86-1.32 5.39-3.394 8.299-4.552 1.531-.61 3.555.016 5.356.084-.768 1.746-1.079 4.458-2.382 5.076-6.562 3.108-13.211 6.785-21.206 3.167m189.843-204.835c-1.279-2.17-2.872-3.845-3.457-5.818-.46-1.553.324-3.475.556-5.234 1.774.606 4.148.705 5.185 1.933 1.646 1.949 2.622 4.577 3.457 7.06.629 1.87.83 3.98.68 5.943-.037.481-2.827 1.473-3.262 1.066-1.302-1.218-2.065-3.013-3.16-4.95M486.411 407.136c.005 1.056-.082 1.758-.17 2.46l-1.256.07-1.024-6.967 1.386-.305c.324 1.463.648 2.925 1.064 4.742m-2.3-18.646c.287-.446.528-.438 1.13-.42.362 3.762.362 7.515.362 11.268l-1.538.012c0-3.469 0-6.937.046-10.86m13.001-77.837c-.496.356-.903.359-1.614.372.162-2.124.63-4.257 1.553-6.713.875-.305 1.292-.285 1.71-.266-.52 2.085-1.04 4.17-1.65 6.607m.136-9.637.97-3.982 1.418.146c-.135 1.379-.27 2.758-.74 4.374-.773-.021-1.21-.28-1.648-.538m3.893-12.75c.352 1.293.352 2.523.352 3.753l-1.843-.196c.38-1.206.76-2.413 1.491-3.557"/><path fill="#EFE9F6" d="M497.14 301.375c.544-.1.982.158 1.65.526.209.568.188 1.025.069 1.814-.516.312-.933.292-1.666.26-.263-.756-.211-1.5-.053-2.6"/><path fill="#B49BD4" d="M567.854 447.667c-.646 13.59-1.425 26.708-1.78 39.837-.114 4.2-1.519 6.304-5.636 7.335-10.971 2.747-21.845 5.883-32.789 8.745-4.515 1.181-12.91-2.988-14.182-7.354-.446-1.53.725-3.742 1.597-5.413 9.854-18.877 20.289-37.468 29.567-56.621 9.062-18.704 16.965-37.969 25.379-56.987.72-1.625 1.454-3.244 2.9-4.708zM448.52 490.306c17.367-4.678 33.664-3.278 49.234 5.265 2.972 1.631 3.49 2.919 1.756 6.153-3.526 6.58-8.278 9.936-15.985 10.512-15.414 1.15-30.758 3.234-46.145 4.788-2.274.23-4.67-.112-6.938-.558-6.563-1.292-7.82-3.967-4.372-9.84 5-8.517 13.087-13.008 22.45-16.32"/><path fill="#B49CD4" d="M560.039 578.444c-6.76-24.288-16.99-46.544-32.626-67.276l38.088-10.704-3.19 80.091-1.122.18a27 27 0 0 1-1.15-2.291"/><path fill="#B9A2D7" d="M510.48 504.45c.505 3.55.145 3.74-5.126 2.837 1.05-2.14.998-5.478 5.126-2.838M747.944 216.96c2.688-6.23 5.061-12.62 8.128-18.657 7.606-14.972 15.517-29.789 23.345-44.647.75-1.425 1.775-2.705 3.211-3.745-7.622 24.17-19.796 46.012-34.297 66.97-.332.123-.387.078-.387.078"/><path fill="#B49CD4" d="M770.194 235.489c-3.725.096-7.042.096-10.36.096l-.216-1.542c5.843-4.823 11.91-9.323 19.754-10.453 1.418-.204 3.01.787 4.521 1.227-.513 1.476-.586 3.644-1.62 4.303-3.715 2.367-7.755 4.223-12.079 6.369"/><path fill="#B9A2D7" d="M748.026 217.027c-.17.305-.365.585-.56.865.048-.246.097-.492.312-.836.166-.097.221-.052.248-.029"/><path fill="#B299D3" d="M727.45 251.443c.12-.09.164.251.164.251s-.284-.161-.164-.251"/><path fill="#B9A2D7" d="M783.48 147.55c-.009-.03.01.03 0 0"/><path fill="#B39BD4" d="M143.643 229.127c14.269 7.636 26.148 17.78 37.536 28.57 2.667 2.528 2.572 4.403-1.074 5.832-15.021 5.889-29.346 4.837-42.81-4.308-7.563-5.136-11.52-18.336-8.238-26.886 2.193-5.714 6.087-6.635 14.586-3.208"/><path fill="#B49CD4" d="M363.763 262.824c2.922-.983 4.583-.043 3.98 2.62-.648 2.864-1.337 6.388-3.318 8.165-9.73 8.729-19.764 17.14-29.997 25.278-2.802 2.229-6.662 3.128-10.4 4.8-.344-11.867 21.917-34.266 39.735-40.863"/><path fill="#B299D3" d="M427.638 299.37c.085.112-.209.187-.209.187s.124-.299.21-.187m336.626 245.335c.187.138.218.39.249.64-.135-.175-.27-.35-.249-.64m24.909-21.499c-.155.055-.524-.103-.779-.439.265-.043.415.091.78.439m-59.87 10.414c-.098-.118.225-.208.225-.208s-.127.327-.225.208"/></svg>