<svg version="1.1" id="Layer_1" xmlns="http://www.w3.org/2000/svg" xmlns:xlink="http://www.w3.org/1999/xlink" x="0px" y="0px"
	 width="100%" viewBox="0 0 974 793" enable-background="new 0 0 974 793" xml:space="preserve">
<path fill="#f9f4ff" opacity="1.000000" stroke="none" 
	d="
M585.654053,342.899048 
	C578.092346,391.863434 574.468872,440.739166 571.755127,490.549194 
	C574.793762,489.828552 576.881165,489.490814 578.864929,488.838013 
	C594.373840,483.734528 609.854065,478.543518 625.361877,473.436493 
	C633.147583,470.872559 636.806702,471.258453 637.040527,474.828644 
	C637.460938,481.247345 631.511597,480.639160 627.817383,481.786224 
	C611.593140,486.823853 595.246277,491.466400 578.946350,496.260498 
	C570.974304,498.605194 571.147339,498.620575 570.807068,506.768738 
	C569.653931,534.380005 568.441711,561.989502 567.046082,589.589294 
	C566.864258,593.186157 567.280334,598.386108 562.367065,598.947510 
	C556.936340,599.568054 556.733337,594.079041 555.750793,590.468384 
	C548.918274,565.361816 539.233765,541.570923 524.119751,520.206299 
	C519.193909,513.243347 519.283325,513.906006 511.070526,514.945251 
	C501.657623,516.136230 495.905396,520.912109 490.675781,528.617432 
	C476.236267,549.892944 459.968445,569.741821 439.372345,585.517395 
	C427.625397,594.514954 415.059143,601.759583 399.802490,603.315125 
	C382.619385,605.067200 362.466919,594.390137 354.971283,578.920349 
	C354.033508,576.984985 353.308350,574.906616 352.785583,572.819153 
	C351.871796,569.170166 352.759338,566.052307 356.565948,564.667175 
	C360.628845,563.188782 363.447021,565.156494 364.971741,568.806519 
	C374.836823,592.422424 397.663727,595.188599 415.647217,586.680786 
	C433.310303,578.324707 447.754425,565.898193 460.710205,551.640808 
	C468.202515,543.395752 475.023560,534.539612 482.108337,525.926880 
	C483.123169,524.693176 483.921295,523.281189 485.511017,520.928650 
	C483.025970,521.108459 481.665649,521.150330 480.319885,521.312866 
	C465.948700,523.049011 451.598572,524.992493 437.197449,526.424622 
	C433.498169,526.792603 429.529480,525.975769 425.876923,524.990356 
	C416.646027,522.499817 412.878632,514.990723 416.246948,505.984619 
	C419.314972,497.781372 425.518677,492.075500 432.867950,487.961121 
	C455.576050,475.248352 478.531952,476.446625 501.142944,488.211548 
	C505.352905,490.402100 506.936584,489.729553 509.200714,485.961121 
	C530.617676,450.314056 548.424072,412.895416 564.314514,374.524323 
	C566.863586,368.368958 569.800354,362.311432 571.655090,355.945618 
	C574.576111,345.920227 576.713013,335.667175 579.218567,325.519623 
	C580.294128,321.163239 581.004028,316.627686 582.791504,312.575653 
	C583.615784,310.707153 586.705688,308.606049 588.633667,308.728577 
	C592.014832,308.943451 592.811768,312.154053 592.075928,315.253540 
	C590.269409,322.863220 588.303162,330.434906 586.446838,338.032990 
	C586.092163,339.484436 585.946594,340.987000 585.654053,342.899048 
M567.885681,447.198242 
	C569.560242,422.299042 571.234741,397.399811 572.909302,372.500610 
	C571.463928,373.965118 570.729065,375.583710 570.009949,377.209259 
	C561.596191,396.226959 553.692627,415.491760 544.631409,434.195709 
	C535.352722,453.348602 524.917725,471.940460 515.064331,490.817291 
	C514.192078,492.488403 513.021179,494.700409 513.467102,496.230469 
	C514.739136,500.595673 523.134338,504.764984 527.649048,503.584259 
	C538.592957,500.722168 549.466797,497.586273 560.438477,494.838867 
	C564.555237,493.808014 565.960266,491.704498 566.073914,487.504028 
	C566.429199,474.375214 567.207520,461.257812 567.885681,447.198242 
M448.136658,490.427582 
	C439.157410,493.618195 431.069122,498.109406 426.069641,506.626099 
	C422.622437,512.498535 423.878510,515.173584 430.442200,516.465759 
	C432.709503,516.912048 435.105652,517.253967 437.380341,517.024170 
	C452.767365,515.469910 468.110565,513.386780 483.524750,512.235779 
	C491.231659,511.660309 495.983582,508.303467 499.510345,501.724213 
	C501.244171,498.489655 500.725800,497.202332 497.753754,495.571442 
	C482.183899,487.027618 465.887329,485.627899 448.136658,490.427582 
M560.120850,578.787292 
	C560.476746,579.436401 560.832703,580.085510 561.188660,580.734619 
	C561.562500,580.674805 561.936340,580.614929 562.310242,580.555115 
	C563.359558,554.217346 564.408936,527.879639 565.501221,500.464355 
	C552.222656,504.195892 540.218018,507.569458 527.413330,511.167847 
	C543.049622,531.899902 553.279175,554.156433 560.120850,578.787292 
M510.235504,504.215027 
	C506.352325,501.809296 506.404938,505.147888 505.354248,507.286591 
	C510.625366,508.189789 510.985138,508.000549 510.235504,504.215027 
z"/>
<path fill="#f9f4ff" opacity="1.000000" stroke="none" 
	d="
M589.269592,226.175659 
	C594.343872,211.878082 599.292236,197.954742 604.768555,182.545776 
	C596.804993,182.341110 589.855652,181.458359 583.059570,182.128754 
	C567.000244,183.712967 550.990295,185.878876 535.029175,188.269104 
	C533.143127,188.551544 530.872986,191.429932 530.161560,193.564987 
	C525.160278,208.574631 520.282471,223.634995 515.832947,238.816238 
	C511.330200,254.179123 507.371094,269.701263 503.134827,285.142944 
	C503.030304,285.523895 502.467072,285.779022 501.439850,285.895172 
	C506.674805,253.574097 516.873474,222.471466 525.653381,189.850327 
	C519.913574,190.706726 515.045227,191.191055 510.282623,192.182938 
	C479.162659,198.664169 447.978516,204.875549 416.999939,211.980087 
	C402.756653,215.246613 388.930756,220.333603 374.916748,224.598953 
	C373.801575,224.938354 372.613190,225.756348 371.602173,225.570831 
	C369.437469,225.173615 367.366638,224.264923 365.257385,223.565704 
	C366.670776,222.014343 367.811554,219.590729 369.540924,219.050201 
	C382.884796,214.879410 396.145660,210.096481 409.803070,207.341431 
	C447.315216,199.774216 485.009399,193.109512 522.629517,186.076950 
	C527.727417,185.123978 534.157776,175.599823 533.336548,170.395935 
	C533.161255,169.284958 532.996948,167.978241 533.401794,166.999176 
	C538.485229,154.706223 543.663147,142.452209 548.859741,130.206406 
	C549.242920,129.303314 549.937622,128.527100 550.519104,127.714432 
	C552.297913,125.228302 554.961304,123.795601 557.214539,126.011284 
	C558.358582,127.136337 558.454468,130.924194 557.430176,132.407639 
	C548.335327,145.579788 542.530579,160.252090 537.131775,175.144791 
	C536.230103,177.632233 535.177917,180.064896 534.243958,182.541214 
	C534.154602,182.778137 534.413269,183.146347 534.702454,184.061020 
	C543.109131,182.926697 551.608765,181.623306 560.147095,180.663971 
	C573.369263,179.178375 586.600037,177.672241 599.867004,176.745499 
	C603.467346,176.493988 607.411194,177.849625 610.787170,179.375366 
	C612.082397,179.960754 613.227478,183.401657 612.717346,184.986633 
	C611.167847,189.801071 608.576538,194.267365 606.747681,199.006866 
	C598.532776,220.295410 590.419189,241.623184 582.333069,262.961060 
	C581.299011,265.689728 580.640381,268.560638 579.807861,271.365662 
	C580.167175,271.603241 580.526550,271.840820 580.885864,272.078400 
	C581.748901,271.334503 582.703796,270.673218 583.459229,269.832672 
	C587.019165,265.871979 590.251465,261.572540 594.110901,257.935272 
	C600.428406,251.981415 606.695007,253.901428 608.156677,262.385101 
	C609.251831,268.741791 608.996155,275.318787 609.750122,281.749878 
	C610.674805,289.637665 613.766541,291.321960 620.927063,287.776855 
	C636.263306,280.183960 648.529724,268.657318 659.955139,256.232666 
	C665.008301,250.737518 669.275574,244.526077 674.114563,238.822144 
	C675.092102,237.669830 677.038147,237.339081 678.537598,236.629562 
	C678.704285,238.415863 679.418335,240.363739 678.946594,241.961563 
	C676.370239,250.687576 673.483154,259.321533 670.762634,268.005798 
	C670.471130,268.936127 670.515564,269.985962 670.488403,270.982697 
	C670.196228,281.678802 675.116455,285.183533 684.905884,280.706329 
	C698.316895,274.572815 708.506042,264.187714 719.160522,254.317154 
	C732.816833,241.665680 739.784790,225.266113 747.245056,208.845917 
	C756.538330,188.391327 766.809387,168.379700 776.752930,148.223480 
	C778.144897,145.401855 779.731384,142.516479 781.874451,140.280304 
	C783.345886,138.744873 785.936584,138.282013 788.026978,137.339752 
	C788.388367,139.453644 789.623657,141.898529 788.968872,143.627609 
	C784.788879,154.665558 780.699341,165.787491 775.625183,176.426361 
	C765.999023,196.609131 754.118958,215.484329 741.067749,233.662674 
	C737.499939,238.632050 735.364258,244.629593 732.571350,250.155304 
	C733.529236,250.921112 734.487122,251.686905 735.445007,252.452713 
	C736.097656,250.927856 736.348022,248.956573 737.466553,247.948837 
	C746.356262,239.939713 755.126709,231.748962 764.551086,224.406281 
	C768.454834,221.364777 773.744202,219.843811 778.630798,218.401672 
	C782.661560,217.212112 786.872681,218.206406 789.080872,222.245514 
	C791.218384,226.155350 789.398071,229.684357 786.605835,232.658401 
	C781.196106,238.420212 774.281494,240.957352 766.602722,241.782394 
	C765.341980,241.917862 764.080444,242.046494 762.718079,242.188858 
	C772.376709,264.212738 797.843018,271.398865 819.395325,258.208984 
	C825.626404,254.395584 831.271729,249.634750 837.400452,245.637665 
	C838.992004,244.599640 841.393494,244.803452 843.422974,244.436890 
	C842.542908,246.301071 842.168335,248.880646 840.702759,249.916321 
	C828.824585,258.310303 816.505676,265.783447 801.718811,268.148956 
	C789.270874,270.140320 778.758911,266.320374 769.299011,258.562805 
	C763.110901,253.488297 756.907471,248.432526 749.921936,242.723526 
	C745.231445,247.949692 738.576965,255.275711 732.037109,262.702637 
	C729.950439,265.072296 728.333191,267.866180 726.169556,270.152069 
	C725.222412,271.152679 723.442871,271.365448 722.041382,271.936035 
	C721.916931,270.412354 721.277588,268.696838 721.760864,267.399567 
	C723.468445,262.816559 725.560425,258.376740 727.506653,253.882629 
	C727.065552,253.548355 726.624512,253.214096 726.183411,252.879822 
	C724.832153,254.053406 723.471191,255.215958 722.131348,256.402344 
	C713.295837,264.225922 704.714722,272.366669 695.514709,279.734711 
	C691.600403,282.869537 686.584656,285.008209 681.732117,286.508148 
	C673.341187,289.101837 667.409546,285.451202 666.033813,276.808044 
	C665.294067,272.160522 666.113586,267.258331 666.301697,262.473907 
	C666.351257,261.214935 666.669556,259.966492 666.864502,258.713226 
	C666.109924,258.063354 665.355286,257.413483 664.600708,256.763611 
	C663.831299,258.448608 663.488220,260.608032 662.224915,261.743439 
	C652.212952,270.741486 642.202820,279.760834 631.790833,288.283447 
	C628.416077,291.045807 624.000305,292.802368 619.792053,294.223083 
	C611.951538,296.870117 606.489929,293.843872 604.892700,285.809174 
	C603.764099,280.131836 603.720947,274.242218 603.117004,268.455322 
	C602.866943,266.059387 602.418091,263.684174 601.814758,259.670380 
	C598.682434,262.346832 596.392456,263.856506 594.674622,265.857422 
	C590.011780,271.288818 585.593811,276.930359 581.072998,282.483948 
	C580.127197,283.645844 579.352112,285.098083 578.146301,285.857452 
	C576.746582,286.738922 574.958740,287.004242 573.339417,287.537018 
	C572.777222,285.793060 571.417480,283.855225 571.786438,282.337585 
	C573.712158,274.414551 575.873718,266.533813 578.338501,258.760529 
	C581.760925,247.966782 585.525574,237.281555 589.269592,226.175659 
M748.662231,216.758942 
	C762.831604,195.922531 775.005737,174.081253 782.628357,149.911285 
	C781.192261,150.951263 780.167114,152.231049 779.416626,153.655533 
	C771.589050,168.514145 763.678101,183.331253 756.072083,198.303055 
	C753.005066,204.340103 750.632385,210.729874 747.611328,217.153503 
	C747.562683,217.399811 747.513977,217.646118 747.465332,217.892441 
	C747.661011,217.612015 747.856628,217.331589 748.662231,216.758942 
M770.600952,235.392593 
	C774.518127,233.343185 778.558167,231.486603 782.273254,229.119888 
	C783.307312,228.461151 783.379700,226.292694 783.893250,224.816849 
	C782.381592,224.377380 780.790466,223.385727 779.371521,223.590103 
	C771.527527,224.720032 765.460938,229.220276 759.618103,234.043320 
	C759.690063,234.557190 759.762085,235.071075 759.834045,235.584961 
	C763.151733,235.584961 766.469482,235.584961 770.600952,235.392593 
M727.329651,251.532928 
	C727.329651,251.532928 727.614380,251.694046 727.614380,251.694046 
	C727.614380,251.694046 727.569763,251.352829 727.329651,251.532928 
M783.489319,147.579056 
	C783.489319,147.579056 783.471252,147.519730 783.489319,147.579056 
z"/>
<path fill="#f9f4ff" opacity="1.000000" stroke="none" 
	d="
M266.855408,190.841400 
	C290.300140,164.188995 313.497589,137.790070 336.722076,111.414932 
	C338.139984,109.804688 339.574188,107.512047 341.357422,107.107071 
	C343.326294,106.659912 346.320557,107.425018 347.681000,108.819946 
	C348.518982,109.679146 347.780670,113.231720 346.619568,114.648682 
	C344.037384,117.799980 340.600800,120.231392 337.763733,123.196648 
	C310.237854,151.966400 283.021912,181.038345 255.175995,209.494141 
	C239.112244,225.909744 222.682144,242.076172 203.296204,254.760605 
	C199.981247,256.929626 196.617432,259.023926 192.860184,261.417786 
	C197.110626,265.962189 200.991699,270.265839 205.037292,274.408875 
	C218.637238,288.336395 231.387177,303.122253 247.925674,313.948792 
	C265.360474,325.362030 283.201263,326.767517 301.932281,317.797241 
	C307.594116,315.085785 313.244720,312.350983 319.287231,309.440582 
	C314.979431,301.897369 317.843262,295.897797 321.495819,290.159637 
	C330.283356,276.354401 342.306641,266.020599 356.490295,258.071899 
	C356.925690,257.827881 357.384338,257.624207 357.837219,257.412689 
	C365.532501,253.818771 371.168121,254.262085 374.197174,258.697571 
	C377.692993,263.816559 375.829163,273.291077 370.393524,278.033112 
	C366.399811,281.517212 362.832397,298.067596 365.794464,302.569061 
	C367.022339,304.434998 370.665680,306.188934 372.728180,305.746246 
	C378.504639,304.506531 384.662689,303.080200 389.529205,299.952301 
	C401.682861,292.140564 413.209259,283.352203 424.973053,274.935699 
	C426.054291,274.162140 426.910980,272.947601 428.088043,272.465576 
	C429.746643,271.786377 431.607239,271.600342 433.381470,271.203430 
	C433.708374,273.036621 434.658386,275.025482 434.246521,276.674133 
	C432.957306,281.835083 431.145508,286.864960 429.555176,291.951538 
	C428.983215,293.780823 428.465240,295.626984 427.922607,297.465424 
	C428.266449,297.723694 428.610260,297.981964 428.954102,298.240265 
	C431.069702,296.588165 433.288849,295.051697 435.284119,293.265198 
	C448.290344,281.619873 463.076080,275.075562 480.901428,277.269775 
	C482.375732,277.451263 483.835571,278.197021 485.130127,278.969055 
	C485.355804,279.103638 484.710693,281.467682 484.485077,281.464722 
	C483.009949,281.445648 481.473297,281.247833 480.078979,280.759460 
	C473.259033,278.370544 466.880890,280.672577 460.706543,282.917725 
	C444.473572,288.820374 432.730225,300.578094 422.040619,313.573639 
	C421.407043,314.343872 421.005005,315.409149 420.223450,315.926819 
	C419.221802,316.590363 417.944458,316.837646 416.785889,317.264282 
	C416.450043,315.958832 415.529358,314.467773 415.875031,313.378601 
	C417.839264,307.189636 420.127350,301.104126 422.261169,294.968048 
	C423.330963,291.891693 424.307343,288.782806 425.325989,285.688660 
	C424.918274,285.328064 424.510559,284.967468 424.102844,284.606903 
	C422.032654,285.949066 419.988281,287.333221 417.887939,288.626404 
	C406.857910,295.417633 395.997192,302.517731 384.673340,308.779297 
	C380.791687,310.925629 375.773499,311.543732 371.212341,311.815094 
	C363.670410,312.263824 359.368927,308.333099 358.434845,300.780518 
	C358.032867,297.530334 358.367493,294.189056 358.367493,290.725220 
	C357.326782,290.815430 356.747803,290.689423 356.417053,290.919800 
	C345.907043,298.239960 335.892700,306.418976 324.822205,312.753174 
	C307.742188,322.525848 290.082520,331.589020 269.179291,327.912781 
	C253.948959,325.234253 241.737915,316.657349 230.752472,306.659698 
	C217.459717,294.562164 205.073288,281.465881 192.378677,268.718140 
	C190.992325,267.325958 190.159592,265.382507 189.070084,263.694763 
	C188.401382,264.093811 187.732681,264.492859 187.063980,264.891907 
	C186.467743,285.675934 185.871506,306.459930 185.275253,327.243927 
	C184.739258,327.248749 184.203247,327.253540 183.667252,327.258362 
	C183.667252,307.099548 183.667252,286.940704 183.667252,266.498230 
	C177.318954,267.834839 172.045044,269.213074 166.685028,270.017395 
	C155.847794,271.643616 145.864716,268.783417 136.548553,263.373810 
	C126.468765,257.520782 120.604874,243.779572 123.147659,232.343979 
	C125.496216,221.781845 134.977127,216.839325 145.136246,222.732056 
	C156.131561,229.109802 165.988113,237.468338 176.236084,245.104202 
	C178.688751,246.931717 180.724274,249.319061 183.663544,252.129639 
	C184.129501,243.888031 184.090622,236.749313 185.009171,229.735977 
	C188.315399,204.492203 191.715668,179.256012 195.532837,154.085587 
	C198.052322,137.472137 201.251633,120.958267 204.369308,104.441864 
	C205.041519,100.880791 206.183029,97.204697 208.038651,94.145943 
	C209.176605,92.270119 212.502075,90.045273 214.098984,90.514862 
	C216.524109,91.228004 218.659225,93.922707 220.122849,96.270981 
	C220.533173,96.929276 218.213409,100.631264 217.047958,100.681908 
	C213.317139,100.844025 212.636505,103.277161 212.067368,105.852249 
	C208.439209,122.268051 204.441772,138.621323 201.459442,155.156342 
	C196.998520,179.889069 193.112152,204.730026 189.335403,229.578766 
	C188.188416,237.125320 188.107040,244.845032 187.777420,252.495758 
	C187.706345,254.145691 188.263947,256.882416 189.252106,257.266663 
	C190.687927,257.825012 193.182205,257.233246 194.525543,256.211823 
	C206.436432,247.155289 218.813766,238.575882 229.832855,228.518372 
	C242.731750,216.745132 254.407761,203.632095 266.855408,190.841400 
M143.292664,228.968170 
	C135.143616,225.699768 131.249863,226.620773 129.056793,232.335434 
	C125.775856,240.884811 129.732147,254.085114 137.294296,259.220886 
	C150.759262,268.365540 165.084015,269.417511 180.105225,263.529175 
	C183.750671,262.100189 183.846237,260.224792 181.178864,257.697418 
	C169.790939,246.907318 157.911850,236.763245 143.292664,228.968170 
M363.406403,262.937103 
	C345.945282,269.421448 323.683868,291.820312 324.027863,303.687164 
	C327.765869,302.015076 331.625702,301.115662 334.428101,298.886749 
	C344.660583,290.748291 354.694061,282.337708 364.425079,273.608887 
	C366.405548,271.832397 367.094513,268.307617 367.743042,265.444763 
	C368.346344,262.781433 366.684845,261.840851 363.406403,262.937103 
M427.552948,299.258209 
	C427.552948,299.258209 427.429077,299.557159 427.429077,299.557159 
	C427.429077,299.557159 427.723145,299.481598 427.552948,299.258209 
z"/>
<path fill="#f9f4ff" opacity="1.000000" stroke="none" 
	d="
M789.388428,523.418640 
	C794.878845,523.726257 797.224854,527.049622 797.885559,532.122681 
	C798.422852,536.248840 798.930054,540.393127 799.776123,544.461731 
	C801.336975,551.968384 806.026917,554.612427 813.420776,552.372314 
	C824.614014,548.981018 832.975525,541.198853 841.719604,534.028198 
	C844.550842,531.706421 847.131653,529.058716 850.087708,526.920471 
	C851.128967,526.167358 852.948425,526.490234 854.412598,526.321838 
	C853.981750,527.743958 854.008057,529.800232 853.049927,530.490967 
	C842.673584,537.971008 832.179199,545.290283 821.617065,552.507202 
	C819.871887,553.699646 817.682800,554.300232 815.634705,554.981873 
	C804.842529,558.573608 798.312378,554.934326 795.659912,543.754578 
	C794.777893,540.037048 794.334167,536.217651 793.570557,532.469238 
	C792.752502,528.453674 790.242615,527.405884 787.069580,529.776001 
	C783.636658,532.340454 780.378906,535.249207 777.504089,538.423767 
	C773.825439,542.485901 770.730469,547.072937 767.117126,551.200195 
	C765.936890,552.548340 763.921936,553.165649 762.288696,554.117188 
	C761.652100,552.532593 761.015503,550.947998 760.081970,548.624146 
	C758.885559,549.287109 757.533569,549.942261 756.278809,550.748779 
	C751.943298,553.535583 747.824036,556.719421 743.288635,559.122070 
	C734.187500,563.943359 728.483398,560.790405 727.566406,550.482544 
	C727.277344,547.233093 728.054504,543.883911 728.392029,540.585388 
	C728.572021,538.825562 728.855164,537.076233 729.301147,533.771118 
	C726.633179,535.644714 725.110168,536.642883 723.663696,537.741821 
	C715.063843,544.275269 706.656372,551.081604 697.815552,557.269531 
	C693.748901,560.115906 688.593018,562.415039 683.879395,558.699951 
	C679.103943,554.936096 679.413025,549.306641 680.547852,543.949524 
	C681.303162,540.384399 682.755676,536.971741 683.619751,533.423584 
	C684.544678,529.625427 685.145386,525.748352 685.887634,521.905701 
	C685.331116,521.486389 684.774597,521.067078 684.218079,520.647827 
	C679.762024,522.174072 675.127380,523.316467 670.880798,525.292847 
	C652.439636,533.875732 637.588623,547.158813 623.905457,561.892395 
	C622.548218,563.353821 621.492432,565.110168 620.058594,566.480469 
	C619.075195,567.420166 617.678894,567.927734 616.467163,568.628540 
	C615.875732,567.220825 614.710938,565.781189 614.787170,564.410522 
	C615.239502,556.272156 616.254578,548.159668 616.546265,540.019287 
	C616.849487,531.554626 616.420898,523.065430 616.610474,514.593628 
	C616.650879,512.788574 617.976624,511.012238 618.710266,509.222687 
	C619.832886,510.730591 621.948425,512.255310 621.923096,513.743774 
	C621.694397,527.204834 621.099243,540.659851 620.585083,554.115601 
	C620.531738,555.513123 620.307251,556.904053 620.091125,558.980713 
	C628.168396,551.844116 635.473755,545.124756 643.065308,538.745972 
	C653.729736,529.785156 665.379028,522.425232 678.886658,518.444397 
	C685.163696,516.594482 687.187134,517.299561 690.900757,522.429077 
	C692.533569,519.380676 693.807983,516.254150 695.768127,513.642334 
	C696.820618,512.239990 699.051147,511.721771 700.750061,510.804596 
	C700.861450,512.700928 701.708618,514.973694 700.962830,516.431580 
	C696.644958,524.872192 691.951843,533.120911 687.384033,541.433655 
	C687.143433,541.871521 686.668762,542.304260 686.674316,542.734680 
	C686.723877,546.579773 686.856934,550.423828 686.965454,554.268188 
	C690.196533,553.579956 693.912354,553.690857 696.579285,552.072815 
	C712.822327,542.217957 726.486511,529.343262 738.626526,514.801392 
	C739.052734,514.290833 739.308960,513.494934 739.839722,513.242371 
	C741.330933,512.532654 742.924316,512.037720 744.477417,511.458130 
	C744.342102,513.047302 744.601624,514.804993 744.007019,516.198120 
	C740.309204,524.861328 736.185364,533.350159 732.730469,542.105042 
	C731.626831,544.901611 731.776306,548.353943 731.973145,551.466919 
	C732.318359,556.924072 735.482056,559.051575 740.018188,556.033142 
	C748.841187,550.162170 757.507385,543.892578 765.421936,536.867981 
	C772.486023,530.598267 778.358093,522.999695 784.968079,516.193298 
	C786.457947,514.659241 788.826782,513.978821 790.791016,512.905457 
	C790.471924,515.163696 790.220947,517.434937 789.796631,519.673218 
	C789.647888,520.457825 789.072937,521.161560 788.486694,522.423462 
	C788.650085,523.102661 789.019226,523.260620 789.388428,523.418640 
M764.109131,544.818481 
	C764.244080,544.994263 764.379028,545.170044 764.514038,545.345764 
	C764.483154,545.094482 764.452271,544.843140 764.109131,544.818481 
M729.402893,533.738892 
	C729.402893,533.738892 729.530273,533.411865 729.530273,533.411865 
	C729.530273,533.411865 729.207336,533.501648 729.402893,533.738892 
z"/>
<path fill="#f9f4ff" opacity="1.000000" stroke="none" 
	d="
M194.986084,445.877106 
	C194.581131,447.759857 193.955414,449.321198 193.329712,450.882568 
	C192.257431,449.533478 190.350662,448.250000 190.238632,446.825409 
	C188.675018,426.940704 187.273529,407.042053 186.004730,387.135803 
	C184.968414,370.877014 184.130768,354.605225 183.287308,338.334930 
	C183.161545,335.908966 183.487457,333.459564 183.604416,331.021027 
	C184.259811,331.007935 184.915192,330.994873 185.570572,330.981812 
	C185.940140,333.303192 186.551285,335.615173 186.641663,337.947388 
	C187.485565,359.722076 187.933258,381.517242 189.137283,403.270935 
	C189.843704,416.034210 191.673676,428.737579 193.114349,441.454712 
	C193.274231,442.865967 194.196579,444.190796 194.986084,445.877106 
z"/>
<path fill="#f9f4ff" opacity="1.000000" stroke="none" 
	d="
M497.023102,311.006104 
	C495.037933,322.283539 492.772003,333.520538 491.138824,344.848694 
	C489.102905,358.970428 487.588715,373.167358 485.364197,387.695862 
	C484.638855,388.051758 484.398499,388.043640 484.158142,388.035522 
	C485.921143,371.712524 487.415741,355.354279 489.551727,339.080261 
	C490.759491,329.878265 493.021240,320.814636 495.305420,311.351746 
	C496.209412,311.011932 496.616272,311.009003 497.023102,311.006104 
z"/>
<path fill="#f9f4ff" opacity="1.000000" stroke="none" 
	d="
M491.805603,425.506531 
	C487.945282,422.001251 485.802612,418.084747 486.698853,412.710327 
	C487.440033,414.173706 488.196716,415.629486 488.919678,417.101807 
	C492.113983,423.606934 495.126465,424.782104 501.739014,421.731567 
	C504.598999,420.412170 507.129211,418.337646 510.037598,417.179932 
	C511.569214,416.570251 513.592590,417.196075 515.393921,417.264038 
	C514.625732,419.010162 514.315247,421.722351 513.012268,422.339630 
	C506.450409,425.448456 499.800598,429.124847 491.805603,425.506531 
z"/>
<path fill="#f9f4ff" opacity="1.000000" stroke="none" 
	d="
M681.648804,220.671799 
	C680.370422,218.501434 678.776855,216.827103 678.192444,214.853882 
	C677.732300,213.300522 678.516479,211.378586 678.747986,209.620361 
	C680.522095,210.225967 682.895508,210.325287 683.932861,211.553253 
	C685.578979,213.501816 686.555420,216.129547 687.390320,218.612823 
	C688.018860,220.482193 688.220947,222.593872 688.069885,224.555862 
	C688.032776,225.037262 685.243408,226.028976 684.808228,225.621933 
	C683.505737,224.403625 682.742554,222.608734 681.648804,220.671799 
z"/>
<path fill="#f9f4ff" opacity="1.000000" stroke="none" 
	d="
M486.411316,407.136292 
	C486.416107,408.192108 486.328613,408.893646 486.241119,409.595154 
	C485.822571,409.619019 485.404022,409.642883 484.985474,409.666748 
	C484.643829,407.344208 484.302185,405.021637 483.960541,402.699066 
	C484.422546,402.597321 484.884583,402.495544 485.346588,402.393768 
	C485.670746,403.856506 485.994904,405.319275 486.411316,407.136292 
z"/>
<path fill="#f9f4ff" opacity="1.000000" stroke="none" 
	d="
M484.111450,388.490082 
	C484.398499,388.043640 484.638855,388.051758 485.241272,388.069824 
	C485.603333,391.832489 485.603333,395.585175 485.603333,399.337860 
	C485.090454,399.341827 484.577576,399.345764 484.064697,399.349701 
	C484.064697,395.881348 484.064697,392.412994 484.111450,388.490082 
z"/>
<path fill="#f9f4ff" opacity="1.000000" stroke="none" 
	d="
M497.111572,310.653442 
	C496.616272,311.009003 496.209412,311.011932 495.498016,311.024658 
	C495.660461,308.901428 496.127441,306.768372 497.051270,304.311676 
	C497.925598,304.007324 498.343109,304.026642 498.760681,304.045959 
	C498.240479,306.130920 497.720276,308.215881 497.111572,310.653442 
z"/>
<path fill="#f9f4ff" opacity="1.000000" stroke="none" 
	d="
M497.246643,301.016388 
	C497.570007,299.688812 497.893372,298.361267 498.216736,297.033691 
	C498.689606,297.082397 499.162476,297.131104 499.635345,297.179779 
	C499.500458,298.558685 499.365540,299.937561 498.894806,301.553589 
	C498.121521,301.532623 497.684082,301.274506 497.246643,301.016388 
z"/>
<path fill="#f9f4ff" opacity="1.000000" stroke="none" 
	d="
M501.140045,288.266296 
	C501.492218,289.558838 501.492218,290.788818 501.492218,292.018768 
	C500.877808,291.953644 500.263397,291.888519 499.648956,291.823364 
	C500.028595,290.616821 500.408234,289.410248 501.140045,288.266296 
z"/>
<path fill="#f9f4ff" opacity="1.000000" stroke="none" 
	d="
M497.140198,301.374512 
	C497.684082,301.274506 498.121521,301.532623 498.789429,301.901001 
	C498.998810,302.468781 498.977753,302.926331 498.858673,303.714905 
	C498.343109,304.026642 497.925598,304.007324 497.192993,303.974884 
	C496.929840,303.218719 496.981812,302.475647 497.140198,301.374512 
z"/>

</svg>
